<?xml version="1.0" encoding="utf-8"?>
<svg version="1.1" xmlns:xlink="http://www.w3.org/1999/xlink" width="20px" height="20px" xmlns="http://www.w3.org/2000/svg">
  <g transform="matrix(1 0 0 1 -516 -70 )">
    <path d="M 14.6500465116279 11.3079069767442  C 17.5553488372093 11.1017674418605  19.8083720930233 8.68725581395349  19.8139534883721 5.77451162790698  C 19.8176744186047 5.26176744186046  19.7469767441861 4.75125581395349  19.6044651162791 4.25823255813954  C 19.5086936025885 3.93109838567475  19.1697223752238 3.73982883722506  18.8401860465116 3.82697674418605  C 18.7418375413165 3.85781130190225  18.6527947473898 3.9128233728627  18.5812093023256 3.98697674418605  L 17.521488372093 5.05972093023256  C 16.8219428506401 5.69300571153725  15.7562897074994 5.69300571153725  15.0567441860465 5.05972093023256  C 14.3993562189966 4.36949782264873  14.3993562189966 3.28482775874663  15.0567441860465 2.59460465116279  L 16.1164651162791 1.44855813953488  C 16.2332866823566 1.33283762460727  16.2990097086346 1.17522462323698  16.2990097086346 1.01079069767442  C 16.2990097086346 0.846356772111855  16.2332866823566 0.688743770741571  16.1164651162791 0.573023255813953  C 16.0272731504249 0.505886731444655  15.9198911900656 0.467239600783933  15.8083720930233 0.462139534883722  C 15.3166889087187 0.311192995595838  14.8066450074653 0.228313991513919  14.2924651162791 0.215813953488372  C 14.2760502959584 0.215667535410378  14.2596349042621 0.215594325279278  14.2432194309393 0.215594325279278  C 11.1939911079665 0.215594325279278  8.72210315186952 2.68748228137628  8.72210315186952 5.73671060434905  C 8.72210315186952 5.74931105628561  8.72214628754562 5.76191147130515  8.72223255813953 5.77451162790698  C 8.72074418604651 6.07218604651163  8.74939534883721 6.36986046511628  8.80818604651163 6.66195348837209  L 8.08111627906977 7.32762790697674  L 4.544 3.80241860465116  C 4.88043710815457 3.09475343311875  4.73762531512174 2.25216385422504  4.18679069767442 1.69488372093023  L 2.95404651162791 0.462139534883721  C 2.84221986800074 0.343069434131216  2.68613967109675 0.275532619023483  2.52279069767442 0.275532619023483  C 2.35944172425209 0.275532619023483  2.2033615273481 0.343069434131216  2.09153488372093 0.462139534883721  L 0.279069767441861 2.15069767441861  C 0.159879386891315 2.2625342584323  0.0922646628763478 2.41869606349487  0.0922646628763478 2.58213953488372  C 0.0922646628763478 2.74558300627257  0.159879386891315 2.90174481133514  0.27906976744186 3.01358139534884  L 1.57358139534884 4.24595348837209  C 2.12337605742502 4.81087783603589  2.97536226809021 4.95545822601457  3.68074418604651 4.60353488372093  L 7.16874418604651 8.15330232558139  L 1.19144186046511 13.6256744186046  C 0.493261189360736 14.3164991200418  0.0985976540577557 15.2567033291438  0.0945116279069754 16.2388837209302  C 0.0986898632503844 17.2149109639523  0.488577138836697 18.1497041608897  1.17916279069767 18.8394418604651  C 1.87337048200806 19.5394536268021  2.81840849424308 19.9332077400831  3.80427906976744 19.9332077400831  C 4.79014964529181 19.9332077400831  5.73518765752682 19.5394536268021  6.42939534883721 18.8394418604651  L 10.6318139534884 14.2541395348837  L 15.5616744186047 19.1843720930233  C 16.0296161356119 19.6684383398932  16.6752092336553 19.9400122795116  17.3484651162791 19.936  C 18.7058220612177 19.9305365168738  19.8032885668565 18.8286437201948  19.8032885668565 17.4712757797965  C 19.8032885668565 16.8199194577388  19.5454572176949 16.1950451222243  19.0861395348837 15.7332093023256  L 14.6500465116279 11.3082790697674  Z M 3.32353488372093 3.44446511627907  C 3.07975712985104 3.68027717516247  2.69289403293966 3.68027717516247  2.44911627906977 3.44446511627907  L 1.59851162790698 2.58195348837209  L 2.46102325581395 1.7186976744186  L 3.32390697674419 2.56930232558139  C 3.44061382467743 2.68500842707481  3.50626383295139 2.84254142486097  3.50626383295139 3.00688372093023  C 3.50626383295139 3.17122601699949  3.44061382467743 3.32875901478566  3.32390697674419 3.44446511627907  Z M 12.8751627906977 9.97655813953488  L 5.54232558139535 17.9884651162791  C 5.08000217825599 18.4514059828498  4.45258636658093 18.7115354227918  3.79832558139535 18.7115354227918  C 3.14406479620977 18.7115354227918  2.5166489845347 18.4514059828498  2.05432558139535 17.9884651162791  C 1.10671205695836 17.0284380399989  1.10671205695836 15.4850503320941  2.05432558139535 14.525023255814  L 9.88055813953488 7.32688372093023  L 9.95423255813953 7.32688372093023  C 9.96167441860465 7.27404651162791  9.96167441860465 7.22009302325581  9.95423255813953 7.16688372093023  C 9.96126284112564 7.10544075680078  9.96126284112564 7.04339645250154  9.95423255813953 6.98195348837209  C 9.96002246724476 6.957610865028  9.96002246724476 6.93224960008828  9.95423255813953 6.90790697674419  C 9.89642959195547 6.52807802214814  9.89642959195547 6.14168941971233  9.95423255813953 5.76186046511628  C 9.96055599983004 3.37698372830541  11.8956578118653 1.4470059886888  14.280542931886 1.4470059886888  C 14.3010138907932 1.4470059886888  14.3214845918879 1.44715128294046  14.3419534883721 1.44744186046512  L 14.1447441860465 1.6446511627907  C 12.9764510587038 2.82612653571803  12.9764510587038 4.72773392939825  14.1447441860465 5.90920930232558  C 15.3217317914682 7.07642584051164  17.219663557369 7.07642584051164  18.3966511627907 5.90920930232558  L 18.5812093023256 5.69972093023256  C 18.5812231304018 5.70417362816332  18.5812300444524 5.70862634488185  18.5812300444524 5.71307906428445  C 18.5812300444524 8.08867411844034  16.6554297497711 10.0144744131217  14.2798346956152 10.0144744131217  C 13.9521714962469 10.0144744131217  13.6255812686681 9.97703468935217  13.3064186046512 9.90288372093023  L 12.9737674418605 9.90288372093023  C 12.9737674418605 9.90288372093023  12.912 9.90288372093023  12.8751627906977 9.97655813953488  Z M 18.224 18.3456744186046  C 17.7433252525761 18.8235138841018  16.9670003288192 18.8235138841018  16.4863255813953 18.3456744186046  L 11.7045581395349 13.5642790697674  L 13.4422325581395 11.8262325581395  L 18.2236279069767 16.6083720930233  C 18.4517209302326 16.8379534883721  18.5800930232558 17.1479069767442  18.5812093023256 17.4712558139535  C 18.5834418604651 17.7986976744186  18.4546976744186 18.1138604651163  18.224 18.3464186046512  Z M 5.01565634446461 16.238511627907  C 5.01565634446461 15.5611428447853  4.46898105989856 15.010741118803  3.79162790697674 15.0061395348837  C 3.78883724954972 15.0061205766132  3.78604653577607 15.0061110973958  3.78325581395349 15.0061110973958  C 3.10261979526881 15.0061110973958  2.55085528344236 15.5578756092223  2.55085528344236 16.238511627907  C 2.55085528344236 16.9158804110286  3.09753056800841 17.4662821370109  3.77488372093023 17.4708837209302  C 3.77767437835747 17.4709026792008  3.78046509213069 17.4709121584181  3.78325581395349 17.4709121584181  C 4.46389183263816 17.4709121584181  5.01565634446461 16.9191476465917  5.01565634446461 16.238511627907  Z " fill-rule="nonzero" fill="#000000" stroke="none" transform="matrix(1 0 0 1 516 70 )" />
  </g>
</svg>