<?xml version="1.0" encoding="utf-8"?>
<svg version="1.1" xmlns:xlink="http://www.w3.org/1999/xlink" width="20px" height="20px" xmlns="http://www.w3.org/2000/svg">
  <g transform="matrix(1 0 0 1 -98 -45 )">
    <path d="M 9.96168982768205 19.8368426903835  C 7.3182212340189 19.8368426903835  4.83308504724847 18.8123179544191  2.9638021122846 16.9523513062813  C 1.09451917732073 15.0923846581434  0.0638132295719845 12.6162534741523  0.0638132295719845 9.9827015008338  C 0.0638132295719845 7.34914952751528  1.09387437465258 4.87444135630906  2.96315730961645 3.01378543635353  C 4.83244024458032 1.153129516398  7.31713173985547 0.12929405225125  9.9610450250139 0.12929405225125  C 12.6049583101723 0.12929405225125  15.0896498054475 1.15381878821567  16.9587103946637 3.01378543635353  C 18.8277709838799 4.87375208449138  19.8587437465259 7.34986103390773  19.8587437465259 9.98183435241801  C 19.8587437465259 12.6138076709283  18.8288604780434 15.09082823791  16.9587548638132 16.9514619232907  C 15.0886492495831 18.8120956086715  12.6052251250695 19.8368426903835  9.96171206225681 19.8368426903835  Z M 15.9613785436354 4.01625347415231  C 14.3601334074486 2.42341300722624  12.2283490828238 1.54259032795998  9.96168982768205 1.54259032795998  C 7.69438576987215 1.54259032795998  5.56349082823791 2.42072262367982  3.96135630906059 4.01556420233463  C 2.35922178988327 5.61040578098944  1.47775430794886 7.72867148415787  1.47775430794886 9.98272373540856  C 1.47775430794886 12.2367759866593  2.35942190105614 14.3561534185659  3.96068927181768 15.9490383546415  C 5.56195664257921 17.5419232907171  7.69307392996109 18.4220122290161  9.9610450250139 18.4220122290161  C 12.2290161200667 18.4220122290161  14.359244024458 17.5441022790439  15.9613785436354 15.9490383546415  C 17.5635130628127 14.353974430239  18.4449805447471 12.2359088382435  18.4443135075042 9.98185658699277  C 18.4436464702613 7.72782657031684  17.5626236798221 5.60909394107838  15.9613785436354 4.01625347415231  Z M 14.910772651473 9.27577543079489  L 10.6686603668705 9.27577543079489  L 10.6686603668705 5.03368538076709  C 10.65176209005 4.64322401334075  10.3215119510839 4.34041133963313  9.93107281823235 4.35733185102835  C 9.56431350750417 4.37320733740967  9.27061700944969 4.66692607003891  9.25471928849361 5.03368538076709  L 9.25471928849361 9.27575319622012  L 5.01285158421345 9.27575319622012  C 4.62241245136187 9.29267370761534  4.31959977765425 9.62292384658143  4.33649805447471 10.013362979433  C 4.35239577543079 10.3801000555864  4.64609227348527 10.6737965536409  5.01287381878822 10.689694274597  L 9.25469705391884 10.689694274597  L 9.25469705391884 14.9317843246248  C 9.27161756531406 15.3222234574764  9.60186770428016 15.625036131184  9.99230683713174 15.6081378543635  C 10.3590439132852 15.5922401334074  10.6527404113396 15.2985214007782  10.6686381322957 14.93176209005  L 10.6686381322957 10.6897165091718  L 14.9107281823235 10.6897165091718  C 15.3011673151751 10.7066592551417  15.6314174541412 10.4038465814341  15.6483157309616 10.0133852140078  C 15.6652584769316 9.62292384658143  15.3624235686493 9.29267370761534  14.9719622012229 9.27577543079489  C 14.9515679106015 9.27488854277792  14.9311447075196 9.27488854277792  14.9107504168983 9.27577543079489  Z " fill-rule="nonzero" fill="#1296db" stroke="none" transform="matrix(1 0 0 1 98 45 )" />
  </g>
</svg>