<?xml version="1.0" encoding="utf-8"?>
<svg version="1.1" xmlns:xlink="http://www.w3.org/1999/xlink" width="17px" height="17px" xmlns="http://www.w3.org/2000/svg">
  <g transform="matrix(1 0 0 1 -92 -10 )">
    <path d="M 16.9538043478261 6.56998207854839  C 16.9538043478261 6.20896057317204  16.8129076086957 5.87078853016129  16.5542119565217 5.61487455166667  L 11.4472826086957 0.562858422634408  C 11.1908967391304 0.309229390376344  10.8467391304348 0.167562723709677  10.4841032608696 0.167562723709677  L 1.40896739130435 0.167562723709677  C 0.658288043478261 0.167562723709677  0.046195652173913 0.773073476397848  0 1.51568100327957  L 0 15.5452508957527  C 0.046195652173913 16.2878584226344  0.658288043478261 16.8933691753226  1.40896739130435 16.8933691753226  L 15.5910326086957 16.8933691753226  C 16.3417119565217 16.8933691753226  16.9538043478261 16.2878584226344  16.9538043478261 15.5452508957527  L 16.9538043478261 6.56998207854839  Z M 3.82038043478261 1.23006272370968  L 7.95720108695652 1.23006272370968  L 7.95720108695652 3.21339605704301  C 7.95720108695652 3.37791218607527  7.82323369565217 3.5104390677957  7.65692934782609 3.5104390677957  L 4.12065217391304 3.5104390677957  C 3.95434782608696 3.5104390677957  3.82038043478261 3.37791218607527  3.82038043478261 3.21339605704301  L 3.82038043478261 1.23006272370968  Z M 13.0179347826087 15.8422939065054  L 3.97975543478261 15.8422939065054  L 3.97975543478261 8.12831541188172  C 3.97975543478261 7.96379928284946  4.11372282608696 7.83127240112903  4.28002717391304 7.83127240112903  L 12.7176630434783 7.83127240112903  C 12.8839673913043 7.83127240112903  13.0179347826087 7.96379928284946  13.0179347826087 8.12831541188172  L 13.0179347826087 15.8422939065054  Z M 15.8913043478261 6.56998207854839  L 15.8913043478261 15.5452508957527  C 15.8913043478261 15.7097670247849  15.7573369565217 15.8422939065054  15.5910326086957 15.8422939065054  L 14.0827445652174 15.8422939065054  L 14.0827445652174 8.12831541188172  C 14.0827445652174 7.385707885  13.470652173913 6.78019713231183  12.719972826087 6.78019713231183  L 4.28002717391304 6.78019713231183  C 3.52934782608696 6.78019713231183  2.91725543478261 7.385707885  2.91725543478261 8.12831541188172  L 2.91725543478261 15.8422939065054  L 1.40896739130435 15.8422939065054  C 1.24266304347826 15.8422939065054  1.10869565217391 15.7097670247849  1.10869565217391 15.5452508957527  L 1.10869565217391 1.51568100327957  C 1.10869565217391 1.35116487424731  1.24266304347826 1.21863799252688  1.40896739130435 1.21863799252688  L 2.75788043478261 1.21863799252688  L 2.75788043478261 3.21339605704301  C 2.75788043478261 3.95600358392473  3.36997282608696 4.5615143366129  4.12065217391304 4.5615143366129  L 7.65692934782609 4.5615143366129  C 8.40760869565217 4.5615143366129  9.01970108695652 3.95600358392473  9.01970108695652 3.21339605704301  L 9.01970108695652 1.21863799252688  L 10.4841032608696 1.21863799252688  C 10.5649456521739 1.21863799252688  10.6388586956522 1.25062723983871  10.6966032608696 1.30546594951613  L 15.8035326086957 6.35976702478495  C 15.861277173913 6.41689068069892  15.8913043478261 6.49000896026882  15.8913043478261 6.56998207854839  Z " fill-rule="nonzero" fill="#02a7f0" stroke="none" transform="matrix(1 0 0 1 92 10 )" />
  </g>
</svg>