<?xml version="1.0" encoding="utf-8"?>
<svg version="1.1" xmlns:xlink="http://www.w3.org/1999/xlink" width="20px" height="20px" xmlns="http://www.w3.org/2000/svg">
  <g transform="matrix(1 0 0 1 -16 -13 )">
    <path d="M 20 10  C 20 4.46666666666667  15.5333333333333 0  10 0  C 4.46666666666667 0  0 4.46666666666667  0 10  C 0 15.5333333333333  4.46666666666667 20  10 20  C 15.5333333333333 20  20 15.5333333333333  20 10  Z M 14.2 13.2  C 14.5333333333333 13.4666666666667  14.5333333333333 13.9333333333333  14.2 14.2  C 13.9333333333333 14.4666666666667  13.4666666666667 14.4666666666667  13.2 14.2  L 10 11  L 6.8 14.2  C 6.53333333333333 14.4666666666667  6.06666666666667 14.4666666666667  5.8 14.2  C 5.53333333333334 13.9333333333333  5.53333333333334 13.4666666666667  5.8 13.2  L 9 10  L 5.8 6.8  C 5.53333333333334 6.53333333333333  5.53333333333334 6.06666666666667  5.8 5.8  C 6.06666666666667 5.53333333333333  6.53333333333333 5.53333333333333  6.8 5.8  L 10 9  L 13.2 5.8  C 13.4666666666667 5.53333333333333  13.9333333333333 5.53333333333333  14.2 5.8  C 14.4666666666667 6.06666666666667  14.4666666666667 6.53333333333333  14.2 6.8  L 11 10  L 14.2 13.2  Z " fill-rule="nonzero" fill="#eb3941" stroke="none" transform="matrix(1 0 0 1 16 13 )" />
  </g>
</svg>