<?xml version="1.0" encoding="utf-8"?>
<svg version="1.1" xmlns:xlink="http://www.w3.org/1999/xlink" width="27px" height="27px" xmlns="http://www.w3.org/2000/svg">
  <g transform="matrix(1 0 0 1 -951 -12 )">
    <path d="M 15.8104918032787 13.4946885245902  L 15.8104918032787 13.4964590163934  L 26.383868852459 2.93016393442623  C 26.6903809597786 2.62455745939942  26.8626540038159 2.209522198779  26.8626540038159 1.77668852459016  C 26.8626540038159 1.34385485040132  26.6903809597786 0.928819589780907  26.383868852459 0.623213114754098  C 26.0782623774322 0.316701007434502  25.6632271168118 0.144427963397251  25.2303934426229 0.144427963397251  C 24.7975597684341 0.144427963397251  24.3825245078137 0.316701007434502  24.0769180327869 0.623213114754098  L 13.5 11.1841967213115  L 2.92308196721311 0.619672131147541  C 2.61747549218631 0.313160023827944  2.20244023156589 0.140886979790691  1.76960655737705 0.140886979790691  C 1.33677288318821 0.140886979790691  0.921737622567791 0.313160023827944  0.616131147540983 0.619672131147541  C 0.309619040221386 0.925278606174348  0.137345996184134 1.34031386679477  0.137345996184134 1.77314754098361  C 0.137345996184134 2.20598121517245  0.309619040221387 2.62101647579286  0.616131147540983 2.92662295081967  L 11.1895081967213 13.4911475409836  L 0.616131147540984 24.0609836065574  C 0.309073527340636 24.3666609468977  0.136453846936825 24.7820776972324  0.136453846936825 25.2153478422005  C 0.136453846936825 26.1149382150397  0.865715933114077 26.8442003012169  1.76530630595322 26.8442003012169  C 1.76644464206485 26.8442003012169  1.76758297786563 26.8441991079144  1.76872131147541 26.8441967213115  C 2.18832786885246 26.8441967213115  2.60262295081967 26.6866229508197  2.92308196721312 26.3679344262295  L 13.5 15.8034098360656  L 24.0769180327869 26.3732459016393  C 24.395606557377 26.6919344262295  24.8116721311475 26.8495081967213  25.2312786885246 26.8495081967213  C 25.2336047360497 26.8495181618555  25.235930802255 26.8495231444397  25.2382568711261 26.8495231444397  C 26.1378472439652 26.8495231444397  26.8671093301425 26.1202610582625  26.8671093301425 25.2206706854234  C 26.8671093301425 24.7865244080639  26.6937928056529 24.3703422390628  26.3856393442623 24.0645245901639  L 15.8104918032787 13.4946885245902  Z " fill-rule="nonzero" fill="#000000" stroke="none" transform="matrix(1 0 0 1 951 12 )" />
  </g>
</svg>