<?xml version="1.0" encoding="utf-8"?>
<svg version="1.1" xmlns:xlink="http://www.w3.org/1999/xlink" width="20px" height="20px" preserveAspectRatio="xMinYMid meet" viewBox="489 495  20 18" xmlns="http://www.w3.org/2000/svg">
  <defs>
    <mask fill="white" id="clip38">
      <path d="M 572.5 411  L 631.5 411  L 631.5 436  L 572.5 436  Z M 489 289  L 631.5 289  L 631.5 516  L 489 516  Z " fill-rule="evenodd" />
    </mask>
  </defs>
  <path d="M 549 292  L 597 292  A 5 5 0 0 1 602 297 L 602 485  A 5 5 0 0 1 597 490 L 504 490  A 5 5 0 0 0 499 495 L 499 504  " stroke-width="2" stroke="#0099cc" fill="none" mask="url(#clip38)" />
  <path d="M 503.292893218813 498.892893218813  L 499 503.185786437627  L 494.707106781187 498.892893218813  L 493.292893218813 500.307106781187  L 498.292893218813 505.307106781187  L 499 506.014213562373  L 499.707106781187 505.307106781187  L 504.707106781187 500.307106781187  L 503.292893218813 498.892893218813  Z " fill-rule="nonzero" fill="#0099cc" stroke="none" mask="url(#clip38)" />
</svg>