<?xml version="1.0" encoding="utf-8"?>
<svg version="1.1" xmlns:xlink="http://www.w3.org/1999/xlink" width="21px" height="21px" xmlns="http://www.w3.org/2000/svg">
  <g transform="matrix(1 0 0 1 -87 -183 )">
    <path d="M 20.8983243574219 10.5  C 20.8983243574219 16.2336537685547  16.2336537685547 20.8983243574219  10.5 20.8983243574219  C 4.76634623144531 20.8983243574219  0.101490436523438 16.2334685419922  0.101490436523438 10.5  C 0.101490436523438 4.76634623144531  4.76634625195313 0.101675642578125  10.5 0.101675642578125  C 16.2334685625 0.101675642578125  20.8983243574219 4.76634625195313  20.8983243574219 10.5  Z M 19.5983949287109 10.5  C 19.5985801142578 5.48289090234375  15.5171090976562 1.40141988574219  10.5 1.40141988574219  C 5.48289090234375 1.40141988574219  1.40141988574219 5.48289092285156  1.40141988574219 10.5  C 1.40141988574219 15.5169238916016  5.48307610839844 19.5985801142578  10.5 19.5985801142578  C 15.5169238916016 19.5985801142578  19.5983949287109 15.5169238916016  19.5983949287109 10.5  Z M 14.2090307871094 13.2900608613281  C 14.4629420537109 13.543786921875  14.4629420537109 13.9551195  14.2090307871094 14.2090307871094  C 14.0821677568359 14.3358938173828  13.9158567802734 14.3994179560547  13.7495458242188 14.3994179560547  C 13.5832348681641 14.3994179560547  13.4169238916016 14.3358938378906  13.2900608613281 14.2090307871094  L 10.5 11.4189699257813  L 7.70993913867188 14.2090307871094  C 7.58307610839844 14.3358938173828  7.41676513183594 14.3994179560547  7.25045417578125 14.3994179560547  C 7.08414321972656 14.3994179560547  6.91783224316406 14.3358938378906  6.79096921289062 14.2090307871094  C 6.53705792578125 13.9553047060547  6.53705792578125 13.5439721484375  6.79096921289062 13.2900608613281  L 9.58084486816406 10.5  L 6.79096921289063 7.70993913867188  C 6.53705792578125 7.45621305761719  6.53705792578125 7.04506568554688  6.79096921289063 6.79096921289063  C 7.0448805 6.53724313183594  7.4560278515625 6.53724313183594  7.70993913867188 6.79096921289063  L 10.5 9.58103007421875  L 13.2900608613281 6.79096921289063  C 13.5437869423828 6.53724313183594  13.9551195 6.53724313183594  14.2088455810547 6.79096921289063  C 14.4627568681641 7.0448805  14.4627568681641 7.4560278515625  14.2088455810547 7.70993913867188  L 11.4189699257813 10.5  L 14.2090307871094 13.2900608613281  Z " fill-rule="nonzero" fill="#d9001b" stroke="none" transform="matrix(1 0 0 1 87 183 )" />
  </g>
</svg>