<?xml version="1.0" encoding="utf-8"?>
<svg version="1.1" xmlns:xlink="http://www.w3.org/1999/xlink" width="26px" height="26px" xmlns="http://www.w3.org/2000/svg">
  <g transform="matrix(1 0 0 1 -371 -10 )">
    <path d="M 2.08640972222222 0.160483796296296  L 23.9135902777778 0.160483796296296  C 24.9772497959704 0.160483796296296  25.8395162037037 1.02275020402958  25.8395162037037 2.08640972222222  L 25.8395162037037 23.9135902777778  C 25.8395162037037 24.9772497959704  24.9772497959704 25.8395162037037  23.9135902777778 25.8395162037037  L 2.08640972222222 25.8395162037037  C 1.02275020402958 25.8395162037037  0.160483796296296 24.9772497959704  0.160483796296296 23.9135902777778  L 0.160483796296296 2.08640972222222  C 0.160483796296296 1.02275020402958  1.02275020402958 0.160483796296296  2.08640972222222 0.160483796296296  Z M 24 24  L 24 2  L 2 2  L 2 24  L 24 24  Z M 12.037037037037 6.58025694444444  C 12.037037037037 6.04842718534812  12.4681702409037 5.61729398148148  13 5.61729398148148  C 13.4959965045441 5.61732812299944  13.9108334107001 5.99410683638347  13.9584490740741 6.4878125  L 13.962962962963 6.58025694444444  L 13.962962962963 12.037037037037  L 19.4197430555556 12.037037037037  C 19.9157510881875 12.0370556790179  20.3306054514062 12.413838417996  20.3782222222222 12.9075555555556  L 20.3827361111111 13  C 20.3827004741825 13.4960069741768  20.0059050796882 13.9108479059284  19.5121875 13.9584490740741  L 19.4197430555556 13.962962962963  L 13.962962962963 13.962962962963  L 13.962962962963 19.4197430555556  C 13.9625863673748 19.9513062740144  13.5315635935303 20.3820237901403  13.0000002416685 20.3820237901403  C 12.5042408977453 20.3820237901403  12.0894950525393 20.0056230964161  12.0415509259259 19.5121875  L 12.037037037037 19.4197430555556  L 12.037037037037 13.962962962963  L 6.58025694444444 13.962962962963  C 6.08424891181249 13.9629443209821  5.66939454859375 13.586161582004  5.62177777777778 13.0924444444444  L 5.61726388888889 13  C 5.61729952581754 12.5039930258232  5.99409492031182 12.0891520940716  6.4878125 12.0415509259259  L 6.58025694444444 12.037037037037  L 12.037037037037 12.037037037037  L 12.037037037037 6.58025694444444  Z " fill-rule="nonzero" fill="#ffffff" stroke="none" transform="matrix(1 0 0 1 371 10 )" />
  </g>
</svg>