<?xml version="1.0" encoding="utf-8"?>
<svg version="1.1" xmlns:xlink="http://www.w3.org/1999/xlink" width="21px" height="22px" xmlns="http://www.w3.org/2000/svg">
  <g transform="matrix(1 0 0 1 -374 -11 )">
    <path d="M 13.275 11.2983050847458  C 13.725 11.2983050847458  14.1 10.9254237288136  14.1 10.4779661016949  C 14.1 10.0305084745763  13.725 9.65762711864407  13.275 9.65762711864407  L 4.875 9.65762711864407  C 4.425 9.65762711864407  4.05 10.0305084745763  4.05 10.4779661016949  C 4.05 10.9254237288136  4.425 11.2983050847458  4.875 11.2983050847458  L 13.275 11.2983050847458  Z M 7.95 20.9186440677966  C 7.95 20.3966101694915  7.575 19.9491525423729  6.975 19.9491525423729  L 2 19.9491525423729  L 2 2  L 17.925 2  L 17.925 8.01694915254237  C 17.925 8.53898305084746  18.375 8.9864406779661  18.9 8.9864406779661  C 19.425 8.9864406779661  19.875 8.53898305084746  19.875 8.01694915254237  L 19.875 1.52881355932203  C 19.875 0.708474576271187  19.2 0.0372881355932209  18.375 0  L 1.5 0  C 0.675 0.0372881355932209  0 0.708474576271187  0 1.52881355932203  L 0 20.3966101694915  C 0 21.2169491525424  0.675 21.8881355932203  1.5 21.8881355932203  L 6.975 21.8881355932203  C 7.5 21.8881355932203  7.95 21.4406779661017  7.95 20.9186440677966  Z M 13.275 7.56949152542373  C 13.725 7.56949152542373  14.1 7.19661016949153  14.1 6.74915254237288  C 14.1 6.30169491525424  13.725 5.92881355932203  13.275 5.92881355932203  L 4.875 5.92881355932203  C 4.425 5.92881355932203  4.05 6.30169491525424  4.05 6.74915254237288  C 4.05 7.19661016949153  4.425 7.56949152542373  4.875 7.56949152542373  L 13.275 7.56949152542373  Z M 10.8 13.0135593220339  L 4.875 13.0135593220339  C 4.425 13.0135593220339  4.05 13.3864406779661  4.05 13.8338983050847  C 4.05 14.2813559322034  4.425 14.6542372881356  4.875 14.6542372881356  L 10.8 14.6542372881356  C 11.25 14.6542372881356  11.625 14.2813559322034  11.625 13.8338983050847  C 11.625 13.3864406779661  11.25 13.0135593220339  10.8 13.0135593220339  Z M 10.65 18.0101694915254  L 9.3 19.3525423728814  L 9.3 21.4406779661017  L 11.4 21.4406779661017  L 12.75 20.0983050847458  L 10.65 18.0101694915254  Z M 20.475 12.4169491525424  C 21.075 11.8203389830508  21.075 10.9254237288136  20.475 10.328813559322  C 19.875 9.73220338983051  18.975 9.73220338983051  18.375 10.328813559322  L 11.85 16.8169491525424  L 13.95 18.9050847457627  L 20.475 12.4169491525424  Z " fill-rule="nonzero" fill="#ffffff" stroke="none" transform="matrix(1 0 0 1 374 11 )" />
  </g>
</svg>