<?xml version="1.0" encoding="utf-8"?>
<svg version="1.1" xmlns:xlink="http://www.w3.org/1999/xlink" width="10px" height="19px" xmlns="http://www.w3.org/2000/svg">
  <g transform="matrix(1 0 0 1 -385 -114 )">
    <path d="M 8.44416015625 9.51590042372881  L 0.31375 1.13804766949153  C 0.202690327657159 1.02351436886052  0.140304612556059 0.868225105710919  0.140304612556059 0.70631091101695  C 0.140304612556059 0.368977741861506  0.40567124621429 0.0955151770069228  0.733017578125 0.0955151770069228  C 0.890291403034255 0.0955151770069228  1.04111723614448 0.159929218468878  1.15228515625 0.274574152542373  L 9.70103515625 9.08413347457627  C 9.93237007737502 9.32259540942454  9.93237007737502 9.70914505667715  9.70103515625 9.94760699152542  L 1.15228515625 18.7577902542373  C 1.04179220746488 18.8678352353441  0.894138200423712 18.9293466720363  0.740475680096355 18.9293466720363  C 0.41320381857553 18.9293466720363  0.147897555096356 18.6559463191628  0.147897555096356 18.3186898923753  C 0.147897555096356 18.1603393629532  0.207587929518014 18.0081806573921  0.314375 17.8943167372881  L 8.44416015625 9.51648411016949  Z " fill-rule="nonzero" fill="#000000" stroke="none" transform="matrix(1 0 0 1 385 114 )" />
  </g>
</svg>