<?xml version="1.0" encoding="utf-8"?>
<svg version="1.1" xmlns:xlink="http://www.w3.org/1999/xlink" width="8px" height="15px" xmlns="http://www.w3.org/2000/svg">
  <g transform="matrix(1 0 0 1 -385 -95 )">
    <path d="M 6.755328125 7.5125529661017  L 0.251 0.898458686440678  C 0.162152262125727 0.808037659626729  0.112243690044847 0.685440872929673  0.112243690044847 0.557613877118644  C 0.112243690044847 0.291298217259084  0.324536996971432 0.0754067186896759  0.5864140625 0.0754067186896759  C 0.712233122427404 0.0754067186896759  0.832893788915583 0.126259909317536  0.921828125 0.21676906779661  L 7.760828125 7.1716843220339  C 7.94589606190001 7.35994374428253  7.94589606190001 7.66511451842933  7.760828125 7.85337394067797  L 0.921828125 14.808781779661  C 0.833433765971905 14.8956593963243  0.71531056033897 14.9442210568708  0.592380544077084 14.9442210568708  C 0.330563054860424 14.9442210568708  0.118318044077085 14.7283786730233  0.118318044077085 14.4621235992436  C 0.118318044077085 14.3371100233841  0.166070343614411 14.2169847295201  0.2515 14.1270921610169  L 6.755328125 7.51301377118644  Z " fill-rule="nonzero" fill="#000000" stroke="none" transform="matrix(1 0 0 1 385 95 )" />
  </g>
</svg>