<?xml version="1.0" encoding="utf-8"?>
<svg version="1.1" xmlns:xlink="http://www.w3.org/1999/xlink" width="5px" height="6px" xmlns="http://www.w3.org/2000/svg">
  <g transform="matrix(1 0 0 1 -393 -19 )">
    <path d="M 4.4875 5.89814634146342  L 0.387500000000001 5.89814634146342  C 0.1875 5.89814634146342  0.0175000000000014 5.74829268292683  0.0175000000000014 5.55160975609756  C 0.0175000000000014 5.35492682926829  0.177500000000002 5.20507317073171  0.387500000000001 5.20507317073171  L 4.4875 5.20507317073171  C 4.6875 5.20507317073171  4.8575 5.35492682926829  4.8575 5.55160975609756  C 4.8575 5.74829268292683  4.6975 5.89814634146342  4.4875 5.89814634146342  Z M 4.4875 3.36  L 0.387500000000001 3.36  C 0.1875 3.36  0.0175000000000014 3.21014634146342  0.0175000000000014 3.01346341463415  C 0.0175000000000014 2.82614634146342  0.177500000000002 2.6669268292683  0.387500000000001 2.6669268292683  L 4.4875 2.6669268292683  C 4.6875 2.6669268292683  4.8575 2.81678048780488  4.8575 3.01346341463415  C 4.8575 3.10712195121951  4.8275 3.19141463414634  4.7575 3.2569756097561  C 4.6875 3.32253658536585  4.5875 3.36  4.4875 3.36  Z M 4.4875 0.81248780487805  L 0.387500000000001 0.81248780487805  C 0.1875 0.81248780487805  0.0175000000000014 0.662634146341464  0.0175000000000014 0.465951219512196  C 0.0175000000000014 0.278634146341464  0.177500000000002 0.119414634146342  0.387500000000001 0.119414634146342  L 4.4875 0.119414634146342  C 4.6875 0.119414634146342  4.8575 0.269268292682927  4.8575 0.465951219512196  C 4.8575 0.559609756097562  4.8275 0.643902439024391  4.7575 0.709463414634147  C 4.6875 0.775024390243903  4.5875 0.81248780487805  4.4875 0.81248780487805  Z " fill-rule="nonzero" fill="#ffffff" stroke="none" transform="matrix(1 0 0 1 393 19 )" />
  </g>
</svg>