<?xml version="1.0" encoding="utf-8"?>
<svg version="1.1" xmlns:xlink="http://www.w3.org/1999/xlink" width="18px" height="18px" xmlns="http://www.w3.org/2000/svg">
  <g transform="matrix(1 0 0 1 -380 -11 )">
    <path d="M 11.1947586206897 17.4612413793103  C 10.9365517241379 17.7293793103448  10.5591724137931 17.888275862069  10.1718620689655 17.888275862069  C 9.92358620689655 17.888275862069  9.68524137931035 17.8286896551724  9.46675862068966 17.7095172413793  L 7.09324137931035 16.3886896551724  C 6.61655172413793 16.1404137931034  6.32855172413793 15.6438620689655  6.32855172413793 15.1075862068966  L 6.32855172413793 7.56  C 6.32855172413793 7.34151724137931  6.21931034482759 7.12303448275862  6.05048275862069 6.99393103448276  L 0.58841379310345 2.61434482758621  L 0.528827586206898 2.5448275862069  L 0.518896551724139 2.53489655172414  C 0.121655172413794 2.13765517241379  0.0124137931034497 1.52193103448276  0.250758620689656 0.975724137931034  C 0.479172413793105 0.439448275862068  0.985655172413794 0.111724137931034  1.57158620689655 0.111724137931034  L 16.3986206896552 0.111724137931034  C 16.9746206896552 0.111724137931034  17.5009655172414 0.449379310344827  17.7393103448276 0.985655172413792  C 17.9776551724138 1.512  17.8783448275862 2.10786206896552  17.4811034482759 2.55475862068965  L 17.4314482758621 2.60441379310345  L 11.88 7.04358620689655  C 11.7107706187624 7.18292084337831  11.6124688991244 7.39044669594739  11.6118620689655 7.60965517241379  L 11.6118620689655 16.4284137931035  C 11.6118620689655 16.8256551724138  11.4728275862069 17.1931034482759  11.1947586206897 17.4612413793103  Z M 1.57158620689655 1  C 1.29351724137931 0.846620689655172  1.0551724137931 0.995586206896551  0.936000000000001 1.24386206896552  C 0.816827586206897 1.47227586206897  0.836689655172414 1.75034482758621  0.985655172413794 1.97875862068966  L 1.01544827586207 2.02841379310345  L 6.5271724137931 6.43779310344828  C 6.87475862068966 6.71586206896552  7.07337931034483 7.13296551724138  7.07337931034483 7.56993103448276  L 7.07337931034483 15.1175172413793  C 7.07337931034483 15.3955862068966  7.21241379310345 15.6438620689655  7.45075862068966 15.7531034482759  L 9.81434482758621 17.0540689655172  C 9.9136551724138 17.1136551724138  10.0427586206897 17.1434482758621  10.1619310344828 17.1434482758621  C 10.2811034482759 17.1434482758621  10.400275862069 17.1136551724138  10.5095172413793 17.064  C 10.7379310344828 16.9348965517241  10.8868965517241 16.6866206896552  10.8868965517241 16.4284137931034  L 10.8868965517241 7.60965517241379  C 10.8868965517241 7.16275862068965  11.0855172413793 6.74565517241379  11.4231724137931 6.47751724137931  L 16.9448275862069 2.02841379310345  L 16.9746206896552 1.99862068965517  C 17.1434482758621 1.78013793103448  17.1732413793103 1.49213793103448  17.0441379310345 1.24386206896552  C 16.9249655172414 0.995586206896551  16.6766896551724 0.846620689655172  16.4085517241379 1  L 1.57158620689655 1  Z " fill-rule="nonzero" fill="#ffffff" stroke="none" transform="matrix(1 0 0 1 380 11 )" />
  </g>
</svg>