<?xml version="1.0" encoding="utf-8"?>
<svg version="1.1" xmlns:xlink="http://www.w3.org/1999/xlink" width="35px" height="35px" xmlns="http://www.w3.org/2000/svg">
  <g transform="matrix(1 0 0 1 -15 -80 )">
    <path d="M 34.9921875 17.6238938053097  C 34.9921875 15.2853982300885  34.53125 13.0127212389381  33.6171875 10.8755530973451  C 32.734375 8.81194690265487  31.4765625 6.95741150442478  29.8671875 5.36615044247788  C 28.26171875 3.77488938053097  26.390625 2.52433628318584  24.30859375 1.64933628318584  C 22.15234375 0.743362831858407  19.86328125 0.286504424778761  17.5 0.286504424778761  C 15.13671875 0.286504424778761  12.84765625 0.743362831858407  10.69140625 1.64933628318584  C 8.609375 2.52433628318584  6.73828125 3.77101769911504  5.1328125 5.36615044247788  C 3.52734375 6.95741150442478  2.265625 8.81194690265487  1.3828125 10.8755530973451  C 0.46875 13.0127212389381  0.00781250000000011 15.2853982300885  0.00781250000000011 17.6238938053097  C 0.00781250000000011 19.962389380531  0.46875 22.2350663716814  1.3828125 24.3722345132743  C 2.265625 26.4358407079646  3.5234375 28.2903761061947  5.1328125 29.8816371681416  C 6.73828125 31.4728982300885  8.609375 32.7234513274336  10.69140625 33.5984513274336  C 12.84765625 34.5044247787611  15.140625 34.9612831858407  17.5 34.9612831858407  C 19.859375 34.9612831858407  22.15234375 34.5044247787611  24.30859375 33.5984513274336  C 26.390625 32.7234513274336  28.26171875 31.4767699115044  29.8671875 29.8816371681416  C 31.47265625 28.2903761061947  32.734375 26.4358407079646  33.6171875 24.3722345132743  C 34.53125 22.2350663716814  34.9921875 19.962389380531  34.9921875 17.6238938053097  Z M 31.8359375 17.6277654867257  C 31.83203125 21.1974557522124  30.49609375 24.4651548672566  28.2890625 26.962389380531  C 26.8203125 26.0796460176991  25.3515625 25.978982300885  25.3515625 25.978982300885  L 20.51953125 23.9502212389381  L 20.51953125 21.4336283185841  C 21.4609375 20.9612831858407  21.84765625 18.2704646017699  21.84765625 18.2704646017699  C 22.9296875 18.3130530973451  22.7734375 16.2610619469027  22.7890625 15.4092920353982  C 22.8046875 14.5575221238938  22.33984375 14.7240044247788  22.33984375 14.7240044247788  C 22.5859375 13.0978982300885  22.48046875 11.8512168141593  22.48046875 11.8512168141593  C 21.83203125 7.83628318584071  17.5234375 7.78982300884956  17.5234375 7.78982300884956  L 17.51953125 8.24668141592921  L 17.515625 7.78982300884956  C 17.515625 7.78982300884956  13.20703125 7.83628318584071  12.55859375 11.8512168141593  C 12.55859375 11.8512168141593  12.44921875 13.0978982300885  12.69921875 14.7240044247788  C 12.69921875 14.7240044247788  12.234375 14.5575221238938  12.25 15.4092920353982  C 12.265625 16.2610619469027  12.109375 18.3130530973451  13.19140625 18.266592920354  C 13.19140625 18.266592920354  13.578125 20.9574115044248  14.51953125 21.4297566371681  L 14.51953125 23.9463495575221  L 9.6875 25.978982300885  C 9.6875 25.978982300885  8.203125 26.083517699115  6.7265625 26.9817477876106  C 4.515625 24.4806415929204  3.171875 21.2051991150443  3.171875 17.6277654867257  C 3.171875 9.79535398230088  9.6015625 3.42256637168142  17.50390625 3.42256637168142  C 25.40625 3.42256637168142  31.8359375 9.79535398230089  31.8359375 17.6277654867257  Z " fill-rule="nonzero" fill="#d7d7d7" stroke="none" transform="matrix(1 0 0 1 15 80 )" />
  </g>
</svg>