<?xml version="1.0" encoding="utf-8"?>
<svg version="1.1" xmlns:xlink="http://www.w3.org/1999/xlink" width="20px" height="20px" xmlns="http://www.w3.org/2000/svg">
  <g transform="matrix(1 0 0 1 -374 -12 )">
    <path d="M 1.30633091768293 8.75804727439024  L 8.75804727439024 8.75804727439024  L 8.75804727439025 1.30633091768293  C 8.75804730329925 0.620419387759628  9.3140884700767 0.0643782444175652  10 0.0643782444175652  C 10.6859115503651 0.0643782444175652  11.2419527256098 0.620419419662265  11.2419527256098 1.30633097002732  L 11.2419527256098 8.75804727439024  L 18.6936690823171 8.75804727439025  C 19.3795805803377 8.75804727439025  19.9356217555824 9.31408844963494  19.9356217555824 10  C 19.9356217555824 10.6859115503651  19.3795805803377 11.2419527256098  18.6936690299727 11.2419527256098  L 11.2419527256098 11.2419527256098  L 11.2419527256098 18.6936690823171  C 11.2419527256098 19.3795806326821  10.6859115503651 19.9356218079268  10 19.9356218079268  C 9.31408844963494 19.9356218079268  8.75804727439024 19.3795806326821  8.75804727439024 18.6936690823171  L 8.75804727439024 11.2419527256098  L 1.30633091768293 11.2419527256098  C 0.620419367317872 11.2419527256098  0.0643781920731712 10.6859115503651  0.0643781920731712 10  C 0.0643781920731712 9.31408844963494  0.620419367317872 8.75804727439024  1.30633091768293 8.75804727439024  Z " fill-rule="nonzero" fill="#ffffff" stroke="none" transform="matrix(1 0 0 1 374 12 )" />
  </g>
</svg>