<?xml version="1.0" encoding="utf-8"?>
<svg version="1.1" xmlns:xlink="http://www.w3.org/1999/xlink" width="60px" height="60px" xmlns="http://www.w3.org/2000/svg">
  <g transform="matrix(1 0 0 1 -17 -98 )">
    <path d="M 17 98  L 77 98  L 77 158  L 17 158  L 17 98  " fill-rule="nonzero" fill="#cccccc" stroke="none" />
    <path d="M 21 102  L 73 102  L 73 154  L 21 154  L 21 102  " fill-rule="nonzero" fill="#ffffff" stroke="none" />
    <path d="M 52.7 116  C 50.18 116  48.2 114.02  48.2 111.5  C 48.2 108.98  50.18 107  52.7 107  C 55.22 107  57.2 108.98  57.2 111.5  C 57.2 114.02  55.22 116  52.7 116  " fill-rule="nonzero" fill="#cccccc" stroke="none" />
    <path d="M 23 153  L 23 126.05  L 35.25 113.8  L 52.4 123.6  L 62.2 121.15  L 72 123.6  L 72 153  L 23 153  " fill-rule="nonzero" fill="#169bd5" stroke="none" />
  </g>
</svg>