<?xml version="1.0" encoding="utf-8"?>
<svg version="1.1" xmlns:xlink="http://www.w3.org/1999/xlink" width="13px" height="24px" xmlns="http://www.w3.org/2000/svg">
  <g transform="matrix(1 0 0 1 -384 -106 )">
    <path d="M 10.977408203125 12.0200847457627  L 0.407875000000001 1.43753389830508  C 0.263497425954307 1.29286025540277  0.182395996322877 1.09670539668748  0.182395996322877 0.892182203389831  C 0.182395996322877 0.466077147614534  0.527372620078577 0.120650749903481  0.9529228515625 0.120650749903481  C 1.15737882394453 0.120650749903481  1.35345240698782 0.202015854908057  1.497970703125 0.346830508474576  L 12.611345703125 11.4746949152542  C 12.9120811005875 11.775909990852  12.9120811005875 12.2641832294869  12.611345703125 12.5653983050847  L 1.497970703125 23.6940508474576  C 1.35432986970435 23.8330550341189  1.16237966055083 23.9107536909932  0.962618384125262 23.9107536909932  C 0.53716496414819 23.9107536909932  0.192266821625262 23.5654058768373  0.192266821625262 23.1393977587898  C 0.192266821625262 22.9393760374146  0.269864308373418 22.7471755672322  0.4086875 22.6033474576271  L 10.977408203125 12.0208220338983  Z " fill-rule="nonzero" fill="#000000" stroke="none" transform="matrix(1 0 0 1 384 106 )" />
  </g>
</svg>