<?xml version="1.0" encoding="utf-8"?>
<svg version="1.1" xmlns:xlink="http://www.w3.org/1999/xlink" width="11px" height="21px" xmlns="http://www.w3.org/2000/svg">
  <g transform="matrix(1 0 0 1 -12 -10 )">
    <path d="M 1.36272768612705 20.6546052631579  C 1.24100637465164 20.7789473684211  1.0584244067623 20.8618421054934  0.855555555655737 20.8618421050329  C 0.449817850512295 20.8618421050329  0.125227686803279 20.5302631572039  0.125227686352459 20.1157894741447  C 0.125227686352459 19.9085526318092  0.206375227110656 19.7220394746053  0.348383423831968 19.5976973686513  L 9.25432604678279 10.5  L 0.348383423831968 1.40230263134868  C 0.226662112356558 1.27796052608553  0.125227686577869 1.0914473675  0.125227686352459 0.884210525855263  C 0.125227686352459 0.469736841414473  0.449817850737705 0.138157894276316  0.855555555655737 0.138157894967105  C 1.05842440834016 0.138157894967105  1.24100637487705 0.221052631578947  1.36272768612705 0.366118421282894  L 10.775842441127 9.9819078949671  C 10.9178506376229 10.1062500002303  10.9989981783811 10.2927631588158  10.9989981790574 10.5  C 10.9989981797336 10.7072368411842  10.9178506382992 10.8937499995395  10.775842441127 11.0180921050329  L 1.36272768612705 20.6546052631579  Z " fill-rule="nonzero" fill="#8385ab" stroke="none" transform="matrix(1 0 0 1 12 10 )" />
  </g>
</svg>