<?xml version="1.0" encoding="utf-8"?>
<svg version="1.1" xmlns:xlink="http://www.w3.org/1999/xlink" width="16px" height="16px" xmlns="http://www.w3.org/2000/svg">
  <g transform="matrix(1 0 0 1 -379 -94 )">
    <path d="M 15.8759748838811 7.5746875  C 15.8748896125646 7.11078125  15.5009361246753 6.73546875  15.0406260477503 6.73640625  L 15.037060156282 6.73640625  C 14.5776803119139 6.73640625  14.2052772116195 7.11171875  14.2052772116195 7.5746875  L 14.2052772116195 14  L 1.67147877818936 14  L 1.67147877818936 1.68140625  L 8.35985086257731 1.68453125  C 8.82078109454035 1.68328125  9.19287411731576 1.3059375  9.19163380723984 0.84203125  L 9.19163380723984 0.8384375  C 9.19163380723984 0.37546875  8.81923070694545 0.000156250000000302  8.35985086257731 0.000156250000000302  L 0.830083430438474 0.000156250000000302  C 0.608858529324008 0.000266100633084144  0.396770274931358 0.0890923517552751  0.240626066858432 0.24703125  C 0.0857490000107639 0.403936502588021  -0.000823994348824 0.616494348716062  0 0.8378125  L 0 15.16328125  C 0.00106663808471351 15.3859652361871  0.0889993793119094 15.5992923673265  0.244812113364656 15.7571875  C 0.400520713946908 15.9133407739076  0.611506192977628 16.0005982204478  0.831168701754902 16  L 15.0460524043324 16  C 15.2670101577831 15.9986184871227  15.4786835899583 15.9099987712403  15.635354729153 15.75296875  C 15.790290287319 15.5957836967323  15.8768553765917 15.3829641983792  15.8759748838811 15.16140625  L 15.8759748838811 7.5746875  Z " fill-rule="nonzero" fill="#000000" stroke="none" transform="matrix(1 0 0 1 379 94 )" />
  </g>
</svg>