<?xml version="1.0" encoding="utf-8"?>
<svg version="1.1" xmlns:xlink="http://www.w3.org/1999/xlink" width="22px" height="22px" xmlns="http://www.w3.org/2000/svg">
  <g transform="matrix(1 0 0 1 -370 -144 )">
    <path d="M 21.8294654653365 10.4151953125  C 21.8279732172764 9.77732421875  21.3137871714286 9.26126953125  20.6808608156566 9.26255859375  L 20.6759577148878 9.26255859375  C 20.0443104288816 9.26255859375  19.5322561659768 9.77861328125  19.5322561659768 10.4151953125  L 19.5322561659768 19.68419921875  L 2.29828332001038 19.68419921875  L 2.29828332001038 2.31193359375  L 11.4947949360438 2.31623046875  C 12.128574004993 2.31451171875  12.6402019113092 1.7956640625  12.6384964849548 1.15779296875  L 12.6384964849548 1.1528515625  C 12.6384964849548 0.51626953125  12.12644222205 0.000214843750000415  11.4947949360438 0  L 1.1413647168529 0  C 0.837180477820511 0.000365888370490698  0.545559128030618 0.122501983663503  0.330860841930344 0.33966796875  C 0.1179048750148 0.555412691058529  -0.001132992229633 0.847679729484585  0 1.1519921875  L 0 20.84951171875  C 0.00146662736648108 21.1557021997572  0.122374146553875 21.449027005074  0.336616655876402 21.6661328125  C 0.550715981676998 21.8808435641229  0.840821015344238 22.0008225531157  1.14285696491299 22  L 20.6883220559571 22  C 20.9921389669518 21.9981004197937  21.2831899361927 21.8762483104554  21.4986127525853 21.66033203125  C 21.7116491450637 21.4442025830069  21.8306761428136 21.1515757727715  21.8294654653365 20.84693359375  L 21.8294654653365 10.4151953125  Z " fill-rule="nonzero" fill="#000000" stroke="none" transform="matrix(1 0 0 1 370 144 )" />
  </g>
</svg>