<?xml version="1.0" encoding="utf-8"?>
<svg version="1.1" xmlns:xlink="http://www.w3.org/1999/xlink" width="15px" height="8px" xmlns="http://www.w3.org/2000/svg">
  <g transform="matrix(1 0 0 1 -227 -18 )">
    <path d="M 7.49038461538462 7.89302325581395  C 7.31971153846154 7.89302325581395  7.14663461538462 7.83023255813953  7.01442307692308 7.7046511627907  L 0.271634615384616 1.18139534883721  C 0.0120192307692308 0.930232558139535  0.0120192307692308 0.52093023255814  0.271634615384616 0.269767441860466  C 0.531250000000001 0.018604651162791  0.954326923076923 0.018604651162791  1.21394230769231 0.269767441860466  L 7.49038461538462 6.34186046511628  L 13.7668269230769 0.269767441860466  C 14.0264423076923 0.018604651162791  14.4495192307692 0.018604651162791  14.7091346153846 0.269767441860466  C 14.96875 0.52093023255814  14.96875 0.930232558139535  14.7091346153846 1.18139534883721  L 7.96634615384615 7.7046511627907  C 7.83653846153846 7.83023255813953  7.66346153846154 7.89302325581395  7.49038461538462 7.89302325581395  Z " fill-rule="nonzero" fill="#ffffff" stroke="none" transform="matrix(1 0 0 1 227 18 )" />
  </g>
</svg>