<?xml version="1.0" encoding="utf-8"?>
<svg version="1.1" xmlns:xlink="http://www.w3.org/1999/xlink" width="12px" height="12px" viewBox="68 724.5  12 12" xmlns="http://www.w3.org/2000/svg">
  <path d="M 74 724.5  C 77.36 724.5  80 727.14  80 730.5  C 80 733.86  77.36 736.5  74 736.5  C 70.64 736.5  68 733.86  68 730.5  C 68 727.14  70.64 724.5  74 724.5  Z " fill-rule="nonzero" fill="#ffffff" stroke="none" />
  <path d="M 74 725  C 77.08 725  79.5 727.42  79.5 730.5  C 79.5 733.58  77.08 736  74 736  C 70.92 736  68.5 733.58  68.5 730.5  C 68.5 727.42  70.92 725  74 725  Z " stroke-width="1" stroke="#797979" fill="none" />
  <path d="M 74 733.5  C 72.32 733.5  71 732.18  71 730.5  C 71 728.82  72.32 727.5  74 727.5  C 75.68 727.5  77 728.82  77 730.5  C 77 732.18  75.68 733.5  74 733.5  " fill-rule="nonzero" fill="#797979" stroke="none" />
</svg>