<?xml version="1.0" encoding="utf-8"?>
<svg version="1.1" xmlns:xlink="http://www.w3.org/1999/xlink" width="12px" height="12px" viewBox="205 724.5  12 12" xmlns="http://www.w3.org/2000/svg">
  <path d="M 211 724.5  C 214.36 724.5  217 727.14  217 730.5  C 217 733.86  214.36 736.5  211 736.5  C 207.64 736.5  205 733.86  205 730.5  C 205 727.14  207.64 724.5  211 724.5  Z " fill-rule="nonzero" fill="#ffffff" stroke="none" />
  <path d="M 211 725  C 214.08 725  216.5 727.42  216.5 730.5  C 216.5 733.58  214.08 736  211 736  C 207.92 736  205.5 733.58  205.5 730.5  C 205.5 727.42  207.92 725  211 725  Z " stroke-width="1" stroke="#797979" fill="none" />
  <path d="M 211 733.5  C 209.32 733.5  208 732.18  208 730.5  C 208 728.82  209.32 727.5  211 727.5  C 212.68 727.5  214 728.82  214 730.5  C 214 732.18  212.68 733.5  211 733.5  " fill-rule="nonzero" fill="#797979" stroke="none" />
</svg>