<?xml version="1.0" encoding="utf-8"?>
<svg version="1.1" xmlns:xlink="http://www.w3.org/1999/xlink" width="7px" height="7px" xmlns="http://www.w3.org/2000/svg">
  <g transform="matrix(1 0 0 1 -74 -641 )">
    <path d="M 0.877116278645833 6.94193798958333  C 1.32120929427083 6.94193798958333  1.6841240390625 6.54689922395833  1.6841240390625 6.05201550260417  L 1.6841240390625 0.972945731770832  C 1.6841240390625 0.478062010416666  1.3212093125 0.0830232447916656  0.877116278645833 0.0830232630208322  C 0.433457372395833 0.0830232630208322  0.0701085182291668 0.478062028645833  0.0701085182291668 0.972945731770832  L 0.0701085182291668 6.05201550260417  C 0.0701085182291668 6.54689922395833  0.423038747395834 6.94193798958333  0.877550388020833 6.94193798958333  Z M 3.70142634895833 6.94193798958333  C 4.14551936458333 6.94193798958333  4.50886820052083 6.54689922395833  4.50886821875 6.05201550260417  L 4.50886821875 0.972945731770832  C 4.50886821875 0.478062010416666  4.1455193828125 0.0830232447916656  3.70142634895833 0.0830232630208322  C 3.25776744270833 0.0830232630208322  2.89441858854167 0.478062028645833  2.89441860677083 0.972945731770832  L 2.89441860677083 6.05201550260417  C 2.89441860677083 6.54689922395833  3.25776744270833 6.94193798958333  3.70186045833333 6.94193798958333  Z M 5.3154418515625 6.05201550260417  C 5.3154418515625 6.54689922395833  5.66837208072917 6.94193798958333  6.12244961197917 6.94193798958333  C 6.56610851822917 6.94193798958333  6.92945737239583 6.54689922395833  6.92945737239583 6.05201550260417  L 6.92945737239583 0.972945731770832  C 6.92945737239583 0.478062010416666  6.56610853645833 0.0830232447916656  6.12244961197917 0.0830232630208322  C 5.6787906875 0.0830232812499988  5.3154418515625 0.478062028645833  5.3154418515625 0.972945731770832  L 5.3154418515625 6.05201550260417  Z " fill-rule="nonzero" fill="#d81e06" stroke="none" transform="matrix(1 0 0 1 74 641 )" />
  </g>
</svg>