<?xml version="1.0" encoding="utf-8"?>
<svg version="1.1" xmlns:xlink="http://www.w3.org/1999/xlink" width="18px" height="19px" xmlns="http://www.w3.org/2000/svg">
  <g transform="matrix(1 0 0 1 -68 -634 )">
    <path d="M 12.73506976875 3.45755850215513  C 12.6820823546026 1.53227821939207  11.0891513453985 -0.000952902200846466  9.14288371875 0  C 7.194306975 0  5.60829766875 1.53016320055047  5.541320925 3.44783757171841  L 0.9940465125 3.44783757171841  C 0.487875435965661 3.44783732403335  0.0774044731241813 3.85363702113618  0.07691161875 4.35453523313112  C 0.0774044834652736 4.85543343787853  0.487875443279392 5.26123312368416  0.9940465125 5.26123287598913  L 2 5.26123287598913  L 2 15.4253489156298  C 2.006734875 17.3337442176788  3.315906975 18.8921860425605  4.9300465125 18.8921860425605  L 13.1650604625 18.8921860425605  C 14.7792 18.8921860425605  16.08837208125 17.3430232867978  16 15.4253489156298  L 16 5.27139566774365  L 17.005506975 5.27139566774365  C 17.5118522645704 5.27139573737167  17.9223953515721 4.86532695193622  17.92264186875 4.36425616356784  C 17.9221490143758 3.86335795157291  17.5116780515343 3.45755825447007  17.005506975 3.45755850215513  L 12.73506976875 3.45755850215513  Z M 10.86731161875 3.28567478351864  L 7.13224186875 3.28567478351864  C 7.1987721 2.36218642913924  8.0065116375 1.64283761393104  9.004465125 1.64283761393104  C 10.0024186125 1.64283761393104  10.8106046625 2.36174456782145  10.86731161875 3.28567478351864  Z M 5.03229766875 17.2489070116551  L 5.03229766875 17.2396279425361  C 4.45138605 17.2396279425361  3.8119813875 16.5132093462433  4 15.4761628744024  L 4 5.33900031948293  L 14.6023813875 5.33900031948293  L 14.6023813875 15.4854419435213  C 14.6023813875 16.5229302952347  13.96342325625 17.2489070116551  13.38251161875 17.2489070116551  L 5.03229766875 17.2489070116551  Z " fill-rule="nonzero" fill="#d81e06" stroke="none" transform="matrix(1 0 0 1 68 634 )" />
  </g>
</svg>