<?xml version="1.0" encoding="utf-8"?>
<svg version="1.1" xmlns:xlink="http://www.w3.org/1999/xlink" width="12px" height="21px" xmlns="http://www.w3.org/2000/svg">
  <g transform="matrix(1 0 0 1 -14 -35 )">
    <path d="M 0.418512377015295 0.450498965853659  C 0.745625134353038 0.113305756097561  1.27529431996693 0.113305756097561  1.60233088052914 0.450498965853659  L 11.5673451839603 9.84806165853658  C 11.742216783795 10.028092097561  11.8160006614303 10.2663406829268  11.8046219429516 10.501180097561  C 11.8160260603555 10.7360457365854  11.7423183794957 10.9748188097561  11.5673451839603 11.1542985365854  L 1.60233088052914 20.5518612292683  C 1.27529431996693 20.8884250536585  0.745650533278213 20.8884250536585  0.418512377015295 20.5518612292683  C 0.0914758164530804 20.2152711804878  0.0914758164530804 19.6689646829268  0.418512377015295 19.3322959609756  L 9.78301989251757 10.5010489756098  L 0.418512377015295 1.66932995121951  C 0.0914250186027278 1.33276612682927  0.0914250186027278 0.787010341463414  0.418512377015295 0.450446517073171  Z " fill-rule="nonzero" fill="#f2f2f2" stroke="none" transform="matrix(1 0 0 1 14 35 )" />
  </g>
</svg>