<?xml version="1.0" encoding="utf-8"?>
<svg version="1.1" xmlns:xlink="http://www.w3.org/1999/xlink" width="17px" height="17px" xmlns="http://www.w3.org/2000/svg">
  <g transform="matrix(1 0 0 1 -137 -632 )">
    <path d="M 16.9291729910714 8.56071428571429  C 16.9291729910714 8.19804129464286  16.6442142857143 7.9131015625  16.2815412946429 7.9131015625  L 9.15774441964286 7.9131015625  L 9.15774441964286 0.789285714285714  C 9.15774441964286 0.426612723214286  8.87278571428571 0.141672991071428  8.51011272321429 0.141672991071428  C 8.14743973214286 0.141672991071428  7.8625 0.426612723214286  7.8625 0.789285714285714  L 7.8625 7.9131015625  L 0.738684151785714 7.9131015625  C 0.376030133928571 7.9131015625  0.0910714285714288 8.19804129464286  0.0910714285714288 8.56071428571429  C 0.0910714285714288 8.92338727678571  0.376030133928572 9.20832700892857  0.738684151785715 9.20832700892857  L 7.8625 9.20832700892857  L 7.8625 16.3321428571429  C 7.8625 16.6948158482143  8.14745870535714 16.9797555803571  8.51011272321429 16.9797555803571  C 8.87276674107143 16.9797555803571  9.15774441964286 16.6948158482143  9.15774441964286 16.3321428571429  L 9.15774441964286 9.20832700892857  L 16.2815412946429 9.20832700892857  C 16.6442142857143 9.20832700892857  16.9291729910714 8.92338727678571  16.9291729910714 8.56071428571429  Z " fill-rule="nonzero" fill="#169bd5" stroke="none" transform="matrix(1 0 0 1 137 632 )" />
  </g>
</svg>