<?xml version="1.0" encoding="utf-8"?>
<svg version="1.1" xmlns:xlink="http://www.w3.org/1999/xlink" width="26px" height="25px" xmlns="http://www.w3.org/2000/svg">
  <g transform="matrix(1 0 0 1 -23 -734 )">
    <path d="M 15.5104330708661 24.0414915966387  C 15.5104330708661 24.5063025210084  15.1444881889764 24.8765756302521  14.6915354330709 24.8765756302521  L 3.91791338582677 24.8765756302521  C 1.77342519685039 24.8765756302521  0.0281496062992132 23.3088235294118  0 21.3813025210084  L 0 7.35819327731092  C 0.0281496062992132 5.43067226890756  1.77342519685039 3.86292016806722  3.91791338582677 3.86292016806722  L 5.38425196850394 3.86292016806722  C 5.53011811023622 3.52678571428571  5.73484251968504 2.95430672268907  5.87047244094488 2.57615546218487  C 6.03681102362205 2.11134453781512  6.20570866141732 1.63340336134454  6.36437007874016 1.26313025210084  C 6.53582677165354 0.858718487394956  6.825 0.186449579831931  7.48779527559055 0.186449579831931  L 18.6452755905512 0.186449579831931  C 19.3669291338583 0.186449579831931  19.6816929133858 0.948004201680671  19.8147637795276 1.27363445378151  C 19.9708661417323 1.65178571428571  20.1218503937008 2.13760504201681  20.2702755905512 2.60766806722689  C 20.3854330708661 2.97794117647059  20.5645669291339 3.54516806722689  20.6976377952756 3.86292016806722  L 22.0564960629921 3.86292016806722  C 22.3200787401575 3.84978991596638  23.6226377952756 3.84453781512605  24.7742125984252 4.83981092436975  C 25.5444881889764 5.50420168067227  25.9667322834646 6.39968487394958  25.9667322834646 7.35556722689075  L 25.9667322834646 14.3198529411765  C 25.9667322834646 14.7846638655462  25.6007874015748 15.1601890756303  25.1478346456693 15.1601890756303  C 24.6948818897638 15.1601890756303  24.328937007874 14.7846638655462  24.328937007874 14.3198529411765  L 24.328937007874 7.35819327731092  C 24.328937007874 6.90388655462185  24.1114173228346 6.46796218487395  23.7173228346457 6.1265756302521  C 22.982874015748 5.49107142857143  22.1409448818898 5.54096638655462  22.1307086614173 5.54359243697479  L 22.1025590551181 5.54621848739496  L 20.3316929133858 5.54621848739496  C 19.6100393700787 5.54621848739496  19.2952755905512 4.78466386554622  19.1622047244094 4.45903361344538  C 19.0061023622047 4.08088235294118  18.8551181102362 3.59506302521008  18.7066929133858 3.125  C 18.5915354330709 2.7547268907563  18.4124015748032 2.1875  18.2793307086614 2  L 7.89468503937008 2  C 7.7488188976378 2.20588235294118  7.54409448818898 2.77836134453782  7.40846456692913 3.15651260504202  C 7.24212598425197 3.62132352941176  7.07322834645669 4.09926470588235  6.91456692913386 4.46953781512605  C 6.74311023622047 4.87394957983193  6.45393700787402 5.54621848739496  5.79114173228346 5.54621848739496  L 3.91791338582677 5.54621848739496  C 3.29350393700787 5.54621848739496  2.71003937007874 5.75367647058823  2.27755905511811 6.12920168067227  C 1.88346456692913 6.47058823529412  1.66594488188976 6.90651260504202  2 7.36081932773109  L 2 21.3865546218487  C 1.66594488188976 21.8408613445378  1.88346456692913 22.2767857142857  2.27755905511811 22.6181722689076  C 2.71259842519685 22.9936974789916  3.29350393700787 23.2011554621849  3.91791338582677 23  L 14.6915354330709 23  C 15.1444881889764 23.2011554621849  15.5104330708661 23.5766806722689  15.5104330708661 24.0414915966387  Z " fill-rule="nonzero" fill="#169bd5" stroke="none" transform="matrix(1 0 0 1 23 734 )" />
  </g>
</svg>