<?xml version="1.0" encoding="utf-8"?>
<svg version="1.1" xmlns:xlink="http://www.w3.org/1999/xlink" width="19px" height="16px" xmlns="http://www.w3.org/2000/svg">
  <g transform="matrix(1 0 0 1 -31 -741 )">
    <path d="M 14.6232142857143 1.00526315789474  C 14.6232142857143 1.46842105263158  14.2473901098901 1.84736842105263  13.7880494505494 1.84736842105263  L 11.0737637362637 1.84736842105263  C 10.6144230769231 1.84736842105263  10.2385989010989 1.46842105263158  10.2385989010989 1.00526315789474  C 10.2385989010989 0.542105263157894  10.6144230769231 0.163157894736842  11.0737637362637 0.163157894736842  L 13.7880494505494 0.163157894736842  C 14.2473901098901 0.163157894736842  14.6232142857143 0.542105263157894  14.6232142857143 1.00526315789474  Z M 10.9302197802198 7.60789473684211  C 10.9302197802198 10.6263157894737  8.49519230769231 13.0815789473684  5.50164835164835 13.0815789473684  C 2.5081043956044 13.0815789473684  0.0730769230769234 10.6263157894737  0.0730769230769234 7.60789473684211  C 0.0730769230769234 4.58947368421053  2.5081043956044 2.13421052631579  5.50164835164835 2.13421052631579  C 8.49519230769231 2.13421052631579  10.9302197802198 4.58947368421053  10.9302197802198 7.60789473684211  Z M 9.25989010989011 7.61052631578947  C 9.25989010989011 5.52105263157895  7.5739010989011 3.82105263157895  5.50164835164835 3.82105263157895  C 3.4293956043956 3.82105263157895  1.74340659340659 5.52105263157895  1.74340659340659 7.61052631578947  C 1.74340659340659 9.7  3.4293956043956 11.4  5.50164835164835 11.4  C 7.5739010989011 11.4  9.25989010989011 9.7  9.25989010989011 7.61052631578947  Z M 18.7964285714286 15.0789473684211  C 18.7964285714286 15.5421052631579  18.4206043956044 15.9210526315789  17.9612637362637 15.9210526315789  L 11.3582417582418 15.9210526315789  C 10.8989010989011 15.9210526315789  10.5230769230769 15.5421052631579  10.5230769230769 15.0789473684211  C 10.5230769230769 14.6157894736842  10.8989010989011 14.2368421052632  11.3582417582418 14.2368421052632  L 17.9612637362637 14.2368421052632  C 18.4206043956044 14.2368421052632  18.7964285714286 14.6157894736842  18.7964285714286 15.0789473684211  Z " fill-rule="nonzero" fill="#169bd5" stroke="none" transform="matrix(1 0 0 1 31 741 )" />
  </g>
</svg>