<?xml version="1.0" encoding="utf-8"?>
<svg version="1.1" xmlns:xlink="http://www.w3.org/1999/xlink" width="16px" height="26px" xmlns="http://www.w3.org/2000/svg">
  <g transform="matrix(1 0 0 1 -28 -819 )">
    <path d="M 15.8069841269841 25.2835555555555  C 15.8069841269841 25.6365252525253  15.5306666666667 25.9222626262626  15.1893333333333 25.9222626262626  C 14.848 25.9222626262626  14.5716825396825 25.6365252525253  14.5716825396825 25.2835555555555  L 14.5716825396825 19  L 14.5716825396825 16.2071919191919  C 14.5716825396825 15.8542222222222  14.848 15.5684848484849  15.1893333333333 15.5684848484849  C 15.5306666666667 15.5684848484849  15.8069841269841 15.8542222222222  15.8069841269841 16.2071919191919  L 15.8069841269841 25.2835555555555  Z M 13.1738412698413 6.89551515151515  C 13.1738412698413 10.5932929292929  10.264380952381 13.6019393939393  6.68850793650794 13.6019393939393  C 3.11263492063492 13.6019393939393  0.203174603174602 10.5932929292929  0.203174603174602 6.89551515151515  C 0.203174603174602 3.19773737373737  3.11263492063492 0.189090909090964  6.68850793650794 0.189090909090964  C 10.264380952381 0.189090909090964  13.1738412698413 3.19773737373737  13.1738412698413 6.89551515151515  Z M 11.9385396825397 6.89551515151515  C 11.9385396825397 3.90367676767676  9.58171428571428 1.46650505050502  6.68850793650794 1.46650505050502  C 3.79530158730159 1.46650505050502  1.43847619047619 3.90367676767676  1.43847619047619 6.89551515151515  C 1.43847619047619 9.88735353535355  3.79530158730159 12.3245252525253  6.68850793650794 12.3245252525253  C 9.58171428571428 12.3245252525253  11.9385396825397 9.88735353535355  11.9385396825397 6.89551515151515  Z " fill-rule="nonzero" fill="#169bd5" stroke="none" transform="matrix(1 0 0 1 28 819 )" />
  </g>
</svg>