<?xml version="1.0" encoding="utf-8"?>
<svg version="1.1" xmlns:xlink="http://www.w3.org/1999/xlink" width="20px" height="14px" xmlns="http://www.w3.org/2000/svg">
  <g transform="matrix(1 0 0 1 -22 -831 )">
    <path d="M 1.46871794871795 13.2621176470588  C 1.45230769230769 13.6486274509804  1.17333333333333 13.9472941176471  0.828717948717949 13.9472941176471  C 0.484102564102564 13.9472941176471  0.205128205128205 13.6486274509804  0.205128205128205 13.2796862745098  C 0.205128205128205 6.04141176470588  5.7025641025641 0.138352941176472  12.48 0.138352941176472  C 15.105641025641 0.138352941176472  17.6 1.01678431372549  19.7169230769231 2.66823529411765  C 19.9958974358974 2.87905882352941  20.0615384615385 3.30070588235294  19.8482051282051 3.59937254901961  C 19.7337476609569 3.77227133025994  19.5480898451123 3.87502328982816  19.3501444129691 3.87502328982816  C 19.215736144548 3.87502328982816  19.0850850823971 3.82753338759183  18.9784615384615 3.73992156862745  C 17.0748717948718 2.24658823529412  14.8266666666667 1.47356862745098  12.48 1.47356862745098  C 6.40820512820513 1.47356862745098  1.46871794871795 6.76172549019608  1.46871794871795 13.2621176470588  Z " fill-rule="nonzero" fill="#169bd5" stroke="none" transform="matrix(1 0 0 1 22 831 )" />
  </g>
</svg>