<?xml version="1.0" encoding="utf-8"?>
<svg version="1.1" xmlns:xlink="http://www.w3.org/1999/xlink" width="25px" height="25px" xmlns="http://www.w3.org/2000/svg">
  <g transform="matrix(1 0 0 1 -22 -904 )">
    <path d="M 22 904  L 47 904  L 47 929  L 22 929  L 22 904  " fill-rule="nonzero" fill="#cccccc" stroke="none" />
    <path d="M 24 906  L 45 906  L 45 927  L 24 927  L 24 906  " fill-rule="nonzero" fill="#ffffff" stroke="none" />
    <path d="M 36.875 911.5  C 35.825 911.5  35 910.675  35 909.625  C 35 908.575  35.825 907.75  36.875 907.75  C 37.925 907.75  38.75 908.575  38.75 909.625  C 38.75 910.675  37.925 911.5  36.875 911.5  " fill-rule="nonzero" fill="#cccccc" stroke="none" />
    <path d="M 25 927  L 25 916  L 30 911  L 37 915  L 41 914  L 45 915  L 45 927  L 25 927  " fill-rule="nonzero" fill="#169bd5" stroke="none" />
  </g>
</svg>