<?xml version="1.0" encoding="utf-8"?>
<svg version="1.1" xmlns:xlink="http://www.w3.org/1999/xlink" width="12px" height="12px" viewBox="68 593.5  12 12" xmlns="http://www.w3.org/2000/svg">
  <path d="M 74 593.5  C 77.36 593.5  80 596.14  80 599.5  C 80 602.86  77.36 605.5  74 605.5  C 70.64 605.5  68 602.86  68 599.5  C 68 596.14  70.64 593.5  74 593.5  Z " fill-rule="nonzero" fill="#ffffff" stroke="none" />
  <path d="M 74 594  C 77.08 594  79.5 596.42  79.5 599.5  C 79.5 602.58  77.08 605  74 605  C 70.92 605  68.5 602.58  68.5 599.5  C 68.5 596.42  70.92 594  74 594  Z " stroke-width="1" stroke="#797979" fill="none" />
  <path d="M 74 602.5  C 72.32 602.5  71 601.18  71 599.5  C 71 597.82  72.32 596.5  74 596.5  C 75.68 596.5  77 597.82  77 599.5  C 77 601.18  75.68 602.5  74 602.5  " fill-rule="nonzero" fill="#797979" stroke="none" />
</svg>