<?xml version="1.0" encoding="utf-8"?>
<svg version="1.1" xmlns:xlink="http://www.w3.org/1999/xlink" width="21px" height="18px" xmlns="http://www.w3.org/2000/svg">
  <g transform="matrix(1 0 0 1 -598 -151 )">
    <path d="M 21 4.74725336160199  C 21 3.6553852803489  20.1288888888889 2.76923147527393  19.0555555555556 2.76923147527393  L 15.75 2.76923147527393  L 14.9628888888889 0.523781029914316  C 14.8512987567152 0.209086502289591  14.5575300186941 -0.000482538765415193  14.2286666666667 0  L 6.77133333333333 0  C 6.44346488499498 0.000383175615057403  6.15104161514752 0.209880083980433  6.04022222222222 0.523781029914316  L 5.25 2.76923147527393  L 1.94444444444444 2.76923147527393  C 0.871111111111111 2.76923147527393  0 3.6553852803489  0 4.74725336160199  L 0 16.0219781136719  C 0 17.113846194925  0.871111111111111 18  1.94444444444444 18  L 19.0555555555556 18  C 20.1288888888889 18  21 17.113846194925  21 16.0219781136719  L 21 4.74725336160199  Z M 19 4.74725336160199  L 19 16.0219781136719  C 19.25 16.131221245937  19.1629442569115 16.2197803023047  19.0555555555556 16  L 1.94444444444444 16  C 1.83705574308846 16.2197803023047  1.75 16.131221245937  2 16.0219781136719  L 2 4.74725336160199  C 1.75 4.63806655347668  1.83711111111111 4.54945117296919  1.94444444444444 4.54945117296919  L 6.482 4.54945117296919  L 6.89733333333333 3.36738529369954  L 7.45422222222222 1.7802205321099  L 13.5426666666667 1.7802205321099  L 14.0995555555556 3.36738529369954  L 14.5148888888889 4.54945117296919  L 19.0555555555556 4.54945117296919  C 19.1628888888889 4.54945117296919  19.25 4.63806655347668  19 4.74725336160199  Z M 14.310341113056 10.0871054201758  C 14.310341113056 7.93338454147113  12.6167289985334 6.17536953526262  10.5 6.13186868203163  C 10.4738207465811 6.13133067274397  10.4476368192538 6.13106164751967  10.4214522241671 6.13106164751967  C 8.27367819704733 6.13106164751967  6.5325633352782 7.90224277487474  6.5325633352782 10.0871054201758  C 6.5325633352782 12.2719680654768  8.27367819704733 14.0431491928319  10.4214522241671 14.0431491928319  C 10.4471181840525 14.0431491928319  10.4727835150769 14.0428907191677  10.4984444444444 14.0423738098348  C 12.6157953733116 13.9997222581139  14.310341113056 12.2414418581146  14.310341113056 10.0871054201758  Z M 10.5 12.4615387182814  C 9.21133558372815 12.4615387182814  8.16666666666667 11.3988300418684  8.16666666666667 10.0879124546878  C 8.16666666666667 8.77699486750712  9.21133558372815 7.71428619109408  10.5 7.71428619109408  C 11.7886644162719 7.71428619109408  12.8333333333333 8.77699486750712  12.8333333333333 10.0879124546878  C 12.8333333333333 11.3988300418684  11.7886644162719 12.4615387182814  10.5 12.4615387182814  Z " fill-rule="nonzero" fill="#999999" stroke="none" transform="matrix(1 0 0 1 598 151 )" />
  </g>
</svg>