<?xml version="1.0" encoding="utf-8"?>
<svg version="1.1" xmlns:xlink="http://www.w3.org/1999/xlink" width="12px" height="12px" viewBox="61 447.5  12 12" xmlns="http://www.w3.org/2000/svg">
  <path d="M 67 447.5  C 70.36 447.5  73 450.14  73 453.5  C 73 456.86  70.36 459.5  67 459.5  C 63.64 459.5  61 456.86  61 453.5  C 61 450.14  63.64 447.5  67 447.5  Z " fill-rule="nonzero" fill="#ffffff" stroke="none" />
  <path d="M 67 448  C 70.08 448  72.5 450.42  72.5 453.5  C 72.5 456.58  70.08 459  67 459  C 63.92 459  61.5 456.58  61.5 453.5  C 61.5 450.42  63.92 448  67 448  Z " stroke-width="1" stroke="#797979" fill="none" />
  <path d="M 67 456.5  C 65.32 456.5  64 455.18  64 453.5  C 64 451.82  65.32 450.5  67 450.5  C 68.68 450.5  70 451.82  70 453.5  C 70 455.18  68.68 456.5  67 456.5  " fill-rule="nonzero" fill="#797979" stroke="none" />
</svg>