<?xml version="1.0" encoding="utf-8"?>
<svg version="1.1" xmlns:xlink="http://www.w3.org/1999/xlink" width="12px" height="12px" viewBox="509 529.5  12 12" xmlns="http://www.w3.org/2000/svg">
  <path d="M 515 529.5  C 518.36 529.5  521 532.14  521 535.5  C 521 538.86  518.36 541.5  515 541.5  C 511.64 541.5  509 538.86  509 535.5  C 509 532.14  511.64 529.5  515 529.5  Z " fill-rule="nonzero" fill="#f0f0f0" stroke="none" />
  <path d="M 515 530  C 518.08 530  520.5 532.42  520.5 535.5  C 520.5 538.58  518.08 541  515 541  C 511.92 541  509.5 538.58  509.5 535.5  C 509.5 532.42  511.92 530  515 530  Z " stroke-width="1" stroke="#797979" fill="none" />
  <path d="M 515 538.5  C 513.32 538.5  512 537.18  512 535.5  C 512 533.82  513.32 532.5  515 532.5  C 516.68 532.5  518 533.82  518 535.5  C 518 537.18  516.68 538.5  515 538.5  " fill-rule="nonzero" fill="#797979" stroke="none" />
</svg>