<?xml version="1.0" encoding="utf-8"?>
<svg version="1.1" xmlns:xlink="http://www.w3.org/1999/xlink" width="12px" height="12px" viewBox="290 529.5  12 12" xmlns="http://www.w3.org/2000/svg">
  <path d="M 296 529.5  C 299.36 529.5  302 532.14  302 535.5  C 302 538.86  299.36 541.5  296 541.5  C 292.64 541.5  290 538.86  290 535.5  C 290 532.14  292.64 529.5  296 529.5  Z " fill-rule="nonzero" fill="#ffffff" stroke="none" />
  <path d="M 296 530  C 299.08 530  301.5 532.42  301.5 535.5  C 301.5 538.58  299.08 541  296 541  C 292.92 541  290.5 538.58  290.5 535.5  C 290.5 532.42  292.92 530  296 530  Z " stroke-width="1" stroke="#797979" fill="none" />
  <path d="M 296 538.5  C 294.32 538.5  293 537.18  293 535.5  C 293 533.82  294.32 532.5  296 532.5  C 297.68 532.5  299 533.82  299 535.5  C 299 537.18  297.68 538.5  296 538.5  " fill-rule="nonzero" fill="#797979" stroke="none" />
</svg>