<?xml version="1.0" encoding="utf-8"?>
<svg version="1.1" xmlns:xlink="http://www.w3.org/1999/xlink" width="12px" height="12px" viewBox="280 447.5  12 12" xmlns="http://www.w3.org/2000/svg">
  <path d="M 286 447.5  C 289.36 447.5  292 450.14  292 453.5  C 292 456.86  289.36 459.5  286 459.5  C 282.64 459.5  280 456.86  280 453.5  C 280 450.14  282.64 447.5  286 447.5  Z " fill-rule="nonzero" fill="#ffffff" stroke="none" />
  <path d="M 286 448  C 289.08 448  291.5 450.42  291.5 453.5  C 291.5 456.58  289.08 459  286 459  C 282.92 459  280.5 456.58  280.5 453.5  C 280.5 450.42  282.92 448  286 448  Z " stroke-width="1" stroke="#797979" fill="none" />
  <path d="M 286 456.5  C 284.32 456.5  283 455.18  283 453.5  C 283 451.82  284.32 450.5  286 450.5  C 287.68 450.5  289 451.82  289 453.5  C 289 455.18  287.68 456.5  286 456.5  " fill-rule="nonzero" fill="#797979" stroke="none" />
</svg>