<?xml version="1.0" encoding="utf-8"?>
<svg version="1.1" xmlns:xlink="http://www.w3.org/1999/xlink" width="20px" height="20px" xmlns="http://www.w3.org/2000/svg">
  <g transform="matrix(1 0 0 1 -366 -62 )">
    <path d="M 20 10  C 20 4.47916015625  15.52083984375 0  10 0  C 4.47916015625 0  0 4.47916015625  0 10  C 0 15.52083984375  4.47916015625 20  10 20  C 15.52083984375 20  20 15.52083984375  20 10  Z M 14.12083984375 13.1375  C 14.32916015625 13.35  14.32916015625 13.72083984375  14.12083984375 13.92916015625  C 13.9125 14.1375  13.54166015625 14.1375  13.32916015625 13.92916015625  L 10.18333984375 10.78333984375  L 7.0375 13.92916015625  C 6.82916015625 14.1375  6.45833984375 14.1375  6.24583984375 13.92916015625  C 6.0375 13.72083984375  6.0375 13.35  6.24583984375 13.1375  L 9.39166015625 9.99166015625  L 6.25833984375 6.85833984375  C 6.05 6.65  6.05 6.27916015625  6.25833984375 6.06666015625  C 6.46666015625 5.85833984375  6.8375 5.85833984375  7.05 6.06666015625  L 10.18333984375 9.2  L 13.31666015625 6.06666015625  C 13.5375 5.85833984375  13.89583984375 5.85833984375  14.10833984375 6.06666015625  C 14.31666015625 6.275  14.31666015625 6.64583984375  14.10833984375 6.85833984375  L 10.975 9.99166015625  L 14.12083984375 13.1375  Z " fill-rule="nonzero" fill="#a6a6a6" stroke="none" transform="matrix(1 0 0 1 366 62 )" />
  </g>
</svg>