<?xml version="1.0" encoding="utf-8"?>
<svg version="1.1" xmlns:xlink="http://www.w3.org/1999/xlink" width="16px" height="17px" xmlns="http://www.w3.org/2000/svg">
  <g transform="matrix(1 0 0 1 -378 -13 )">
    <path d="M 15.9937168985442 8.51182883092191  C 15.9937169131952 8.20325083494449  15.7961479542189 7.68895414390652  15.4010100334177 7.68895414433028  L 8.78245018262345 7.68895414433028  L 8.78245018262345 1.00309734729036  C 8.78245018262345 0.694519335210127  8.48609674965324 0.283082007805257  8.09095884390995 0.283082008229018  C 7.69582093898059 0.283082008229018  7.39946752147527 0.69451935173671  7.39946752269619 1.10595669482064  L 7.39946752269619 7.7918134761815  L 0.978476600762276 7.7918134761815  C 0.583338695832919 7.68895414433028  0.188200790903563 8.10039148826173  0.188200805554518 8.51182883092191  C 0.188200820205473 8.92326617358209  0.583338710483874 9.23184417040701  0.879692128396159 9.23184417040701  L 7.30068304951612 9.23184417040701  L 7.30068304951612 15.9177009517679  C 7.39946752188224 16.3291382952756  7.69582095444548 16.7405756387832  8.09095884431691 16.7405756396308  C 8.48609673418834 16.7405756404783  8.78245016675159 16.3291382961231  8.78245018262345 16.0205602997219  L 8.78245018262345 9.23184417040701  L 15.3022255614586 9.23184417040701  C 15.6973634663879 9.23184417040701  15.9937168838932 8.82040682689932  15.9937168985442 8.51182883092191  Z " fill-rule="nonzero" fill="#ffffff" stroke="none" transform="matrix(1 0 0 1 378 13 )" />
  </g>
</svg>