<?xml version="1.0" encoding="utf-8"?>
<svg version="1.1" xmlns:xlink="http://www.w3.org/1999/xlink" width="11px" height="11px" xmlns="http://www.w3.org/2000/svg">
  <g transform="matrix(1 0 0 1 -789 -14 )">
    <path d="M 10.5935024038462 9.39688221153846  L 6.69662019230769 5.5  L 10.5935024038462 1.60311778846154  C 10.9239519230769 1.27266826923077  10.9239519230769 0.736920673076924  10.5935024038462 0.406471153846154  C 10.2630793269231 0.0760216346153846  9.72730528846154 0.0760216346153846  9.39688221153846 0.406471153846154  L 5.5 4.30337980769231  L 1.60311778846154 0.406497596153846  C 1.27266826923077 0.0760480769230763  0.736920673076924 0.0760480769230763  0.406471153846154 0.406497596153846  C 0.0760216346153846 0.736947115384616  0.0760216346153846 1.27269471153846  0.406471153846154 1.60314423076923  L 4.30337980769231 5.5  L 0.406497596153846 9.39688221153846  C 0.0760480769230763 9.72730528846154  0.0760480769230763 10.2630793269231  0.406497596153846 10.5935024038462  C 0.571709134615384 10.7587403846154  0.788271634615384 10.8413461538462  1.00480769230769 10.8413461538462  C 1.22134375 10.8413461538462  1.43790625 10.7587403846154  1.60311778846154 10.5935024038462  L 5.5 6.69662019230769  L 9.39688221153846 10.5935024038462  C 9.56209375 10.7587403846154  9.77865625 10.8413461538462  9.99519230769231 10.8413461538462  C 10.2117283653846 10.8413461538462  10.4282908653846 10.7587403846154  10.5935024038462 10.5935024038462  C 10.9239519230769 10.2630793269231  10.9239519230769 9.72730528846154  10.5935024038462 9.39688221153846  Z " fill-rule="nonzero" fill="#000000" stroke="none" transform="matrix(1 0 0 1 789 14 )" />
  </g>
</svg>