<?xml version="1.0" encoding="utf-8"?>
<svg version="1.1" xmlns:xlink="http://www.w3.org/1999/xlink" width="23px" height="23px" xmlns="http://www.w3.org/2000/svg">
  <g transform="matrix(1 0 0 1 -783 -8 )">
    <path d="M 7.78239601769911 2.58197898230088  C 8.98585066371681 2.0729767699115  10.2651493362832 1.81488827433628  11.5847997787611 1.81488827433628  C 12.9044502212389 1.81488827433628  14.1837488938053 2.0729767699115  15.387203539823 2.58197898230089  C 16.5504081858407 3.07396017699115  17.595407079646 3.77864048672566  18.4931703539823 4.67642920353982  C 19.3909590707965 5.57419247787611  20.0956139380531 6.61919137168142  20.5876205752212 7.78239601769912  C 21.0966227876106 8.98582522123894  21.3547112831858 10.2651493362832  21.3547112831858 11.5847997787611  C 21.3547112831858 12.9044502212389  21.0966227876106 14.1837488938053  20.5876205752212 15.387203539823  C 20.095639380531 16.5504081858407  19.3909590707965 17.595407079646  18.4931703539823 18.4931703539823  C 17.595407079646 19.3909590707965  16.5504081858407 20.0956139380531  15.387203539823 20.5876205752212  C 14.1837743362832 21.0966227876106  12.9044502212389 21.3547112831858  11.5847997787611 21.3547112831858  C 10.2651493362832 21.3547112831858  8.98585066371681 21.0966227876106  7.78239601769911 20.5876205752212  C 6.61919137168141 20.095639380531  5.5741924778761 19.3909590707965  4.67642920353982 18.4931703539823  C 3.77864048672566 17.595407079646  3.07398561946903 16.5504081858407  2.58197898230088 15.387203539823  C 2.0729767699115 14.1837743362832  1.81488827433628 12.9044502212389  1.81488827433628 11.5847997787611  C 1.81488827433628 10.2651493362832  2.0729767699115 8.98585066371681  2.58197898230088 7.78239601769911  C 3.07396017699115 6.61919137168141  3.77864048672566 5.5741924778761  4.67642920353982 4.67642920353982  C 5.5741924778761 3.77864048672566  6.61919137168141 3.07398561946903  7.78239601769911 2.58197898230088  Z M 22.9830298672566 11.5847997787611  C 22.9830298672566 5.28972013274336  17.8798794247788 0.186569690265486  11.5847997787611 0.186569690265485  C 5.28972013274336 0.186569690265485  0.186569690265486 5.28972013274336  0.186569690265486 11.5847997787611  C 0.186569690265486 17.8798794247788  5.28972013274336 22.9830298672566  11.5847997787611 22.9830298672566  C 17.8798794247788 22.9830298672566  22.9830298672566 17.8798794247788  22.9830298672566 11.5847997787611  Z " fill-rule="nonzero" fill="#000000" stroke="none" transform="matrix(1 0 0 1 783 8 )" />
  </g>
</svg>