<?xml version="1.0" encoding="utf-8"?>
<svg version="1.1" xmlns:xlink="http://www.w3.org/1999/xlink" width="23px" height="23px" xmlns="http://www.w3.org/2000/svg">
  <g transform="matrix(1 0 0 1 -523 -126 )">
    <path d="M 15 20.6986113207547  C 15.2031446539976 21.9576805030542  14.1958893082665 22.9501232705307  12.9516327044929 22.9501232705307  C 12.5665056603774 22.9501232705307  12.2110037735849 22.8612477988325  11.8703144653184 22.6834968554363  L 8.92261132075472 21.0393006290212  C 8.19679496864387 20.6541735849057  7.7524176101533 19.8987320754717  7.7524176101533 19.0692276728656  L 7.7524176101533 9.70767798751179  C 7.7524176101533 9.57436477996462  7.67835471698113 9.42623899389151  7.57466666675708 9.35217610071934  L 0.760880503054245 3.88633459128538  L 0.686817610153302 3.79745911958726  C 0.0498767297405663 3.16051823917453  -0.0982490566037735 2.21251320754717  0.257252830188679 1.38300880494104  C 0.612754716981132 0.553504402334904  1.39782138373821 0.0498767294693385  2.30138867924528 0  L 20.6837987422288 0  C 21.5725534592099 0.0498767294693385  22.3724327044929 0.568316981132075  22.7427471698113 1.38300880494104  C 23.1130616351297 2.19770062875  22.9501232705307 3.13089308158019  22.3428075471698 3.79745911958726  L 22.2539320754717 3.88633459128538  L 15.351270440342 9.41142641509434  C 15.2475823901179 9.50030188679245  15.1883320754717 9.63361509433962  15 9.76692830188679  L 15 20.6986113207547  Z M 1.90144905660377 2.0792  C 1.81257358490566 2.24213836487028  1.84219874222877 2.41988930826651  1.93107421392689 2.55320251581368  L 8.71523522003538 7.97460628939859  C 9.24848805022406 8.40417106936321  9.55955220116745 9.04111194977594  9.55955220116745 9.72249056603773  L 9.55955220116745 19.0840402516627  C 9.55955220116745 19.246978616533  9.63361509433962 19.4099169811321  9.78174088041273 19.4839798743042  L 12.7294440252476 21.0985509433962  C 12.8627572327948 21.1726138365684  13.040508176191 21.1726138365684  13.1886339622641 21.0985509433962  C 13.3219471698113 21.0244880502241  13.4108226415094 20.861549685625  13 20.6986113207547  L 13 9.78174088041274  C 13.4108226415094 9.10036226415094  13.7070742139269 8.46342138346698  14.2403270441156 8.03385660377359  L 21.0393006290212 2.55320251581368  C 21.1429886792453 2.41988930826651  21.1578012580425 2.22732578634434  21.0837383648703 2.0792  C 21.0096754716981 1.93107421365566  20.861549685625 1.8273861634316  20.6837987422288 2  L 2.30138867924528 2  C 2.12363773584906 1.8273861634316  1.97551194977594 1.91626163512972  1.90144905660377 2.0792  Z " fill-rule="nonzero" fill="#ffffff" stroke="none" transform="matrix(1 0 0 1 523 126 )" />
  </g>
</svg>