<?xml version="1.0" encoding="utf-8"?>
<svg version="1.1" xmlns:xlink="http://www.w3.org/1999/xlink" width="7px" height="9px" xmlns="http://www.w3.org/2000/svg">
  <g transform="matrix(1 0 0 1 -703 -122 )">
    <path d="M 6.91985 1.02204  C 6.93478333324219 1.52892  6.53158333324219 1.94364  6.02385 1.94364  L 0.931583333242186 1.94364  C 0.438783333242188 1.94364  0.0355833332421853 1.52892  0.0355833332421853 1.02204  C 0.0355833332421853 0.51516  0.438783333242184 0.100439999999999  0.931583333242186 0.100439999999999  L 6.02385 0.100439999999999  C 6.51665 0.100439999999999  6.91985 0.51516  6.91985 1.02204  Z M 6.91985 4.49339999990625  C 6.93478333324219 5.00027999990625  6.53158333324219 5.41499999990625  6.02385 5.41499999990625  L 0.931583333242186 5.41499999990625  C 0.438783333242188 5.41499999990625  0.0355833332421853 5.00027999990625  0.0355833332421853 4.49339999990625  C 0.0355833332421853 3.98651999990625  0.438783333242184 3.57179999990625  0.931583333242186 3.57179999990625  L 6.02385 3.57179999990625  C 6.51665 3.57179999990625  6.91985 3.98651999990625  6.91985 4.49339999990625  Z M 6.91985 7.94939999990625  C 6.91985 8.45627999990625  6.53158333324219 8.87099999990625  6.02385 8.87099999990625  L 0.931583333242186 8.87099999990625  C 0.438783333242188 8.87099999990625  0.0355833332421853 8.45627999990625  0.0355833332421853 7.94939999990625  C 0.0355833332421853 7.44251999990625  0.438783333242184 7.02779999990625  0.931583333242186 7.02779999990625  L 6.02385 7.02779999990625  C 6.51665 7.02779999990625  6.91985 7.44251999990625  6.91985 7.94939999990625  Z " fill-rule="nonzero" fill="#ffffff" stroke="none" transform="matrix(1 0 0 1 703 122 )" />
  </g>
</svg>