<?xml version="1.0" encoding="utf-8"?>
<svg version="1.1" xmlns:xlink="http://www.w3.org/1999/xlink" width="22px" height="22px" xmlns="http://www.w3.org/2000/svg">
  <g transform="matrix(1 0 0 1 -343 -9 )">
    <path d="M 21.8344907407407 10.2007009345794  C 21.8319444444444 9.68154205607477  21.4118055555556 9.25747663551402  20.8974537037037 9.25747663551402  L 11.9268518518519 9.25747663551402  L 11.9268518518519 0.958644859813084  C 11.9268518518519 0.439485981308411  11.506712962963 0.0154205607476634  10.9923611111111 0.0154205607476634  C 10.4780092592593 0.0154205607476634  10.0578703703704 0.439485981308411  10.0578703703704 0.958644859813084  L 10.0578703703704 9.25747663551402  L 1.08981481481481 9.25747663551402  C 0.575462962962963 9.25747663551402  0.155324074074074 9.68154205607477  0.155324074074074 10.2007009345794  C 0.155324074074074 10.7198598130841  0.575462962962963 11.1439252336449  1.08981481481481 11.1439252336449  L 10.0604166666667 11.1439252336449  L 10.0604166666667 20.9514018691589  C 10.0604166666667 21.4705607476636  10.4805555555556 21.8946261682243  10.9949074074074 21.8946261682243  C 11.5092592592593 21.8946261682243  11.9293981481481 21.4705607476636  11.9293981481481 20.9514018691589  L 11.9293981481481 11.1439252336449  L 20.9 11.1439252336449  C 21.4143518518519 11.1439252336449  21.8344907407407 10.7198598130841  21.8344907407407 10.2007009345794  Z " fill-rule="nonzero" fill="#ffffff" stroke="none" transform="matrix(1 0 0 1 343 9 )" />
  </g>
</svg>