<?xml version="1.0" encoding="utf-8"?>
<svg version="1.1" xmlns:xlink="http://www.w3.org/1999/xlink" width="42px" height="42px" xmlns="http://www.w3.org/2000/svg">
  <g transform="matrix(1 0 0 1 -58 -231 )">
    <path d="M 42 29.6197674418605  C 42 37.0247093023256  37.2383720930233 42  30.1508720930233 42  L 11.8491279069767 42  C 4.76162790697674 42  0 37.0247093023256  0 29.6258720930233  L 0 12.3802325581395  C 0 4.97529069767442  4.76162790697674 0  11.8491279069767 0  L 30.1569767441861 0  C 37.244476744186 0  42 4.97529069767442  42 12.3741279069767  L 42 29.6197674418605  Z M 11.8491279069767 3  L 11.8491279069767 2.93023255813953  C 6.4343023255814 2.93023255813953  2.93633720930233 6.63575581395349  3 12.3741279069767  L 3 29.6197674418605  C 2.93633720930233 35.3581395348837  6.4343023255814 39.0636627906977  11.8491279069767 39  L 30.1569767441861 39  C 35.5656976744186 39.0697674418605  39.0697674418605 35.3642441860465  39 29.6258720930233  L 39 12.3802325581395  C 39.0697674418605 6.64186046511628  35.5718023255814 2.93633720930233  30.1569767441861 3  L 11.8491279069767 3  Z " fill-rule="nonzero" fill="#200e32" stroke="none" transform="matrix(1 0 0 1 58 231 )" />
  </g>
</svg>