<?xml version="1.0" encoding="utf-8"?>
<svg version="1.1" xmlns:xlink="http://www.w3.org/1999/xlink" width="7px" height="8px" xmlns="http://www.w3.org/2000/svg">
  <g transform="matrix(1 0 0 1 -79 -560 )">
    <path d="M 1.60588235294117 7.69122807017544  C 1.45718533090204 7.80029568618773  1.2478181230299 7.8614641937508  1.02941176470588 7.85964912280702  C 0.811005406381855 7.8614641937508  0.601638198509729 7.80029568618773  0.452941176470589 7.69122807017544  C 0.293708098692938 7.58935204879214  0.203381053833402 7.4471140038285  0.203381053833402 7.29824561403509  C 0.203381053833402 7.14937722424167  0.293708098692941 7.00713917927803  0.452941176470589 6.90526315789474  L 4.80117647058823 3.92982456140351  L 0.452941176470586 0.95438596491228  C 0.300051670563085 0.850160537326215  0.214159240514329 0.70880052200828  0.214159240514329 0.56140350877193  C 0.214159240514329 0.254465118062161  0.579160228333826 0.00564238952355673  1.02941176470588 0.00564238952355673  C 1.24563017750479 0.00564238952355673  1.45299284703367 0.0641956250455135  1.60588235294117 0.168421052631579  L 6.54705882352941 3.53684210526316  C 6.70629190130705 3.63871812664645  6.79661894616659 3.7809561716101  6.79661894616659 3.92982456140351  C 6.79661894616659 4.07869295119692  6.70629190130705 4.22093099616056  6.54705882352941 4.32280701754386  L 1.60588235294117 7.69122807017544  Z " fill-rule="nonzero" fill="#4d4d4d" stroke="none" transform="matrix(1 0 0 1 79 560 )" />
  </g>
</svg>