<?xml version="1.0" encoding="utf-8"?>
<svg version="1.1" xmlns:xlink="http://www.w3.org/1999/xlink" width="11px" height="19px" xmlns="http://www.w3.org/2000/svg">
  <g transform="matrix(1 0 0 1 -356 -40 )">
    <path d="M 0.383636345597354 0.407594302439024  C 0.683489706490285 0.102514731707317  1.16901979330302 0.102514731707317  1.46880330715171 0.407594302439024  L 10.6033997519636 8.91015102439024  C 10.7636987184787 9.07303570731707  10.8313339396445 9.28859395121951  10.8209034477057 9.50106770731707  C 10.8313572219926 9.7135651902439  10.763791847871 9.92959797073171  10.6033997519636 10.0919843902439  L 1.46880330715171 18.5945411121951  C 1.16901979330302 18.8990512390244  0.683512988838362 18.8990512390244  0.383636345597354 18.5945411121951  C 0.083852831748657 18.2900072585366  0.083852831748657 17.7957299512195  0.383636345597354 17.4911249170732  L 8.96776823480777 9.50094907317073  L 0.383636345597354 1.51034614634146  C 0.0838062670525005 1.20583601951219  0.0838062670525005 0.712056975609756  0.383636345597354 0.407546848780488  Z " fill-rule="nonzero" fill="#ffffff" stroke="none" transform="matrix(1 0 0 1 356 40 )" />
  </g>
</svg>