<?xml version="1.0" encoding="utf-8"?>
<svg version="1.1" xmlns:xlink="http://www.w3.org/1999/xlink" width="56px" height="56px" xmlns="http://www.w3.org/2000/svg">
  <g transform="matrix(1 0 0 1 -20 -31 )">
    <path d="M 55.9875 28.1982300884956  C 55.9875 24.4566371681416  55.25 20.8203539823009  53.7875 17.4008849557522  C 52.375 14.0991150442478  50.3625 11.1318584070796  47.7875 8.5858407079646  C 45.21875 6.03982300884956  42.225 4.03893805309734  38.89375 2.63893805309734  C 35.44375 1.18938053097345  31.78125 0.458407079646018  28 0.458407079646018  C 24.21875 0.458407079646018  20.55625 1.18938053097345  17.10625 2.63893805309734  C 13.775 4.03893805309734  10.78125 6.03362831858407  8.2125 8.5858407079646  C 5.64375 11.1318584070796  3.625 14.0991150442478  2.2125 17.4008849557522  C 0.75 20.8203539823009  0.0125000000000002 24.4566371681416  0.0125000000000002 28.1982300884956  C 0.0125000000000002 31.9398230088496  0.75 35.5761061946903  2.2125 38.9955752212389  C 3.625 42.2973451327434  5.6375 45.2646017699115  8.2125 47.8106194690265  C 10.78125 50.3566371681416  13.775 52.3575221238938  17.10625 53.7575221238938  C 20.55625 55.2070796460177  24.225 55.9380530973451  28 55.9380530973451  C 31.775 55.9380530973451  35.44375 55.2070796460177  38.89375 53.7575221238938  C 42.225 52.3575221238938  45.21875 50.3628318584071  47.7875 47.8106194690265  C 50.35625 45.2646017699115  52.375 42.2973451327434  53.7875 38.9955752212389  C 55.25 35.5761061946903  55.9875 31.9398230088496  55.9875 28.1982300884956  Z M 50.9375 28.2044247787611  C 50.93125 33.9159292035398  48.79375 39.1442477876106  45.2625 43.1398230088496  C 42.9125 41.7274336283186  40.5625 41.5663716814159  40.5625 41.5663716814159  L 32.83125 38.3203539823009  L 32.83125 34.2938053097345  C 34.3375 33.5380530973451  34.95625 29.2327433628319  34.95625 29.2327433628319  C 36.6875 29.3008849557522  36.4375 26.0176991150442  36.4625 24.6548672566372  C 36.4875 23.2920353982301  35.74375 23.558407079646  35.74375 23.558407079646  C 36.1375 20.9566371681416  35.96875 18.9619469026549  35.96875 18.9619469026549  C 34.93125 12.5380530973451  28.0375 12.4637168141593  28.0375 12.4637168141593  L 28.03125 13.1946902654867  L 28.025 12.4637168141593  C 28.025 12.4637168141593  21.13125 12.5380530973451  20.09375 18.9619469026549  C 20.09375 18.9619469026549  19.91875 20.9566371681416  20.31875 23.558407079646  C 20.31875 23.558407079646  19.575 23.2920353982301  19.6 24.6548672566372  C 19.625 26.0176991150442  19.375 29.3008849557522  21.10625 29.2265486725664  C 21.10625 29.2265486725664  21.725 33.5318584070796  23.23125 34.287610619469  L 23.23125 38.3141592920354  L 15.5 41.5663716814159  C 15.5 41.5663716814159  13.125 41.7336283185841  10.7625 43.170796460177  C 7.225 39.1690265486726  5.075 33.9283185840708  5.075 28.2044247787611  C 5.075 15.6725663716814  15.3625 5.47610619469026  28.00625 5.47610619469026  C 40.65 5.47610619469026  50.9375 15.6725663716814  50.9375 28.2044247787611  Z " fill-rule="nonzero" fill="#ffffff" stroke="none" transform="matrix(1 0 0 1 20 31 )" />
  </g>
</svg>