<?xml version="1.0" encoding="utf-8"?>
<svg version="1.1" xmlns:xlink="http://www.w3.org/1999/xlink" width="22px" height="23px" xmlns="http://www.w3.org/2000/svg">
  <g transform="matrix(1 0 0 1 -25 -54 )">
    <path d="M 2.19342056074766 10.4050357142857  C 2.19342056074766 14.9417857142857  5.87543925233645 18.6193214285714  10.4177196261682 18.6193214285714  C 14.96 18.6193214285714  18.6420186915888 14.9417857142857  18.6420186915888 10.4050357142857  C 18.6420186915888 5.86828571428572  14.96 2.19075  10.4177196261682 2.19075  C 5.87543925233645 2.19075  2.19342056074766 5.86828571428572  2.19342056074766 10.4050357142857  Z M 20.8346168224299 10.4050357142857  C 20.8346168224299 13.1412142857143  19.7769719626168 15.6309642857143  18.0474018691589 17.4890357142857  L 21.5608224299065 21.0811428571429  C 21.7608371881312 21.2857394830252  21.872806905723 21.5603519581066  21.872806905723 21.8463035714286  C 21.872806905723 22.451192052879  21.3818501496521 22.9415510531592  20.7762242990654 22.9415510531592  C 20.4808555314749 22.9415510531592  20.1979764050038 22.8225415210636  19.9916261682243 22.6114642857143  L 16.3910280373832 18.9298214285714  C 14.6414364568415 20.1561810115853  12.5551681543817 20.8125998644854  10.4177196261682 20.80925  C 4.66317757009346 20.80925  0 16.15175  0 10.4050357142857  C 0 4.65832142857143  4.664 0  10.4177196261682 0  C 16.1706168224299 0  20.8346168224299 4.65832142857143  20.8346168224299 10.4050357142857  Z " fill-rule="nonzero" fill="#02a7f0" stroke="none" transform="matrix(1 0 0 1 25 54 )" />
  </g>
</svg>