<?xml version="1.0" encoding="utf-8"?>
<svg version="1.1" xmlns:xlink="http://www.w3.org/1999/xlink" width="20px" height="20px" xmlns="http://www.w3.org/2000/svg">
  <g transform="matrix(1 0 0 1 -347 -88 )">
    <path d="M 19.6844922979798 16.9180670918367  C 20.3787642171717 15.6996017857143  19.3718412373737 15.1927258673469  17.1175441919192 14.3219497193878  C 15.6809101515151 13.7669627295918  14.3201971464646 13.0528672959184  12.7428326767677 14.5403159438776  C 11.769270530303 15.4583155867347  11.0653082323232 15.3578383928571  10.4287394191919 15.0160489030612  C 9.79258406565657 14.6743116326531  5.87329547979798 10.6321216326531  5.33823037878788 9.30978551020408  C 4.80321694444444 7.98744941326531  5.0921976010101 7.8087362755102  5.33823037878788 7.40789785714286  C 5.58390138888889 7.00648512755102  7.29052287878788 6.07021214285714  6.26380565656566 3.12815461734694  C 5.23672666666667 0.186018775510203  4.43035621212121 -2.02959576530612  0.247385404040404 3.12815461734694  C -0.186537777777778 3.6630931632653  0.247385404040404 5.9812993622449  0.247385404040404 5.9812993622449  C 0.247385404040404 5.9812993622449  3.19685878787879 15.7209554591837  13.2054135858586 19.7712640561224  C 14.759133510101 20.3998664540816  18.268065959596 19.4043618112245  19.6844922979798 16.9180670918367  Z " fill-rule="nonzero" fill="#02a7f0" stroke="none" transform="matrix(1 0 0 1 347 88 )" />
  </g>
</svg>