<?xml version="1.0" encoding="utf-8"?>
<svg version="1.1" xmlns:xlink="http://www.w3.org/1999/xlink" width="4px" height="6px" xmlns="http://www.w3.org/2000/svg">
  <g transform="matrix(1 0 0 1 -166 -20 )">
    <path d="M 0.139504125671765 0.128713990243902  C 0.248541711451013 0.0323730731707318  0.425098106655643 0.0323730731707318  0.534110293509715 0.128713990243902  L 3.85578172798677 2.81373190243902  C 3.91407226126498 2.86516917073171  3.93866688714345 2.93324019512195  3.93487398098388 3.00033717073171  C 3.93867535345184 3.06744163902439  3.91410612649855 3.13566251707317  3.85578172798677 3.18694243902439  L 0.534110293509715 5.87196035121951  C 0.425098106655643 5.96812144390244  0.248550177759404 5.96812144390244  0.139504125671765 5.87196035121951  C 0.0304919388176935 5.77579176585366  0.0304919388176935 5.61970419512195  0.139504125671765 5.52351313170732  L 3.26100663083919 3.00029970731707  L 0.139504125671765 0.476951414634146  C 0.0304750062009093 0.380790321951219  0.0304750062009093 0.224860097560975  0.139504125671765 0.128699004878049  Z " fill-rule="nonzero" fill="#333333" stroke="none" transform="matrix(1 0 0 1 166 20 )" />
  </g>
</svg>