<?xml version="1.0" encoding="utf-8"?>
<svg version="1.1" xmlns:xlink="http://www.w3.org/1999/xlink" width="29px" height="29px" xmlns="http://www.w3.org/2000/svg">
  <g transform="matrix(1 0 0 1 -14 -99 )">
    <path d="M 28.5 99  C 36.62 99  43 105.38  43 113.5  C 43 121.62  36.62 128  28.5 128  C 20.38 128  14 121.62  14 113.5  C 14 105.38  20.38 99  28.5 99  Z " fill-rule="nonzero" fill="#ffffff" stroke="none" />
    <path d="M 28.5 99.5  C 36.34 99.5  42.5 105.66  42.5 113.5  C 42.5 121.34  36.34 127.5  28.5 127.5  C 20.66 127.5  14.5 121.34  14.5 113.5  C 14.5 105.66  20.66 99.5  28.5 99.5  Z " stroke-width="1" stroke="#797979" fill="none" />
  </g>
</svg>