<?xml version="1.0" encoding="utf-8"?>
<svg version="1.1" xmlns:xlink="http://www.w3.org/1999/xlink" width="375px" height="180px" xmlns="http://www.w3.org/2000/svg">
  <g transform="matrix(1 0 0 1 0 -43 )">
    <path d="M 0 43  L 375 43  L 375 223  L 0 223  L 0 43  " fill-rule="nonzero" fill="#cccccc" stroke="none" />
    <path d="M 13 56  L 362 56  L 362 210  L 13 210  L 13 56  " fill-rule="nonzero" fill="#ffffff" stroke="none" />
    <path d="M 208.5 97  C 200.94 97  195 91.06  195 83.5  C 195 75.94  200.94 70  208.5 70  C 216.06 70  222 75.94  222 83.5  C 222 91.06  216.06 97  208.5 97  " fill-rule="nonzero" fill="#cccccc" stroke="none" />
    <path d="M 18 206  L 18 126.25  L 103 90  L 222 164.24  L 290 111.75  L 358 164.24  L 358 206  L 18 206  " fill-rule="nonzero" fill="#169bd5" stroke="none" />
  </g>
</svg>