<?xml version="1.0" encoding="utf-8"?>
<svg version="1.1" xmlns:xlink="http://www.w3.org/1999/xlink" width="20px" height="20px" xmlns="http://www.w3.org/2000/svg">
  <g transform="matrix(1 0 0 1 -1048 -234 )">
    <path d="M 17.6108108108108 0.572972972972973  C 18.1124324324324 0.0713513513513512  19.0118918918919 0.0713513513513512  19.5135135135135 0.572972972972973  C 20.0151351351351 1.0745945945946  20.0151351351351 1.95675675675676  19.5135135135135 2.45837837837838  L 2.3027027027027 19.427027027027  C 1.78378378378378 19.9286486486486  0.901621621621622 19.9286486486486  0.382702702702704 19.427027027027  C -0.118918918918918 18.9254054054054  -0.118918918918918 18.0432432432432  0.382702702702704 17.5416216216216  L 17.6108108108108 0.572972972972973  Z M 0.694054054054055 2.66594594594594  C 0.192432432432432 2.18162162162162  0.192432432432432 1.33405405405405  0.694054054054055 0.832432432432432  C 1.19567567567568 0.348108108108107  2.06054054054054 0.348108108108107  2.54486486486487 0.832432432432432  L 19.2540540540541 17.2821621621622  C 19.7556756756757 17.7664864864865  19.7556756756757 18.6313513513513  19.2540540540541 19.1156756756757  C 18.7524324324324 19.6  17.8875675675676 19.6  17.4032432432432 19.1156756756757  L 0.694054054054055 2.66594594594594  Z " fill-rule="nonzero" fill="#000000" stroke="none" transform="matrix(1 0 0 1 1048 234 )" />
  </g>
</svg>